<svg width="264" height="185" viewBox="0 0 264 185" fill="none" xmlns="http://www.w3.org/2000/svg">
<path opacity="0.1" d="M11.1943 25.291C11.6221 28.875 12.7151 32.3365 12.7246 35.9612C12.7603 47.8051 1.87948 55.0797 0.213734 66.7165C-0.774782 73.6207 1.78681 80.6756 5.39869 85.8255C9.01058 90.9755 13.6157 94.688 17.8573 98.9247C29.5931 110.668 38.639 126.472 43.9936 144.587C45.0653 148.227 45.9873 151.981 46.2914 155.866C46.5124 158.69 46.4079 161.581 46.9093 164.339C48.8934 175.289 58.9544 179.538 67.4614 180.247C81.1625 181.371 94.8768 178.346 107.558 171.404C110.41 169.834 113.354 168.052 116.414 168.494C118.862 168.849 121.046 170.597 123.194 172.188C129.52 176.877 136.252 180.538 143.244 183.091C147.118 184.503 151.183 185.576 155.14 184.66C167.021 181.892 173.335 162.861 184.993 158.7C193.058 155.822 201.451 160.849 208.684 166.37C215.917 171.89 223.383 178.248 231.733 178.264C242.873 178.283 252.031 167.148 259.588 156.34C261.173 154.071 262.784 151.698 263.539 148.776C265.072 142.845 262.589 136.183 258.918 132.197C255.246 128.211 250.617 126.234 246.195 123.956C238.7 120.094 231.547 115.16 224.864 109.243C220.539 105.415 216.35 101.084 213.391 95.435C210.846 90.5643 209.318 84.9185 207.612 79.4454C203.872 67.4602 198.582 55.2805 189.75 49.6567C182.538 45.0623 174.162 45.5769 166.156 45.4546C154.361 45.2819 142.265 43.4084 131.808 36.2029C122.975 30.1177 115.72 20.5114 106.757 14.7589C92.4998 5.6171 76.2012 7.40907 60.8388 7.75428C53.4558 7.92061 44.6803 8.89348 37.5896 5.6987C32.3453 3.33557 29.6459 -1.49426 23.6221 0.451476C15.3837 3.10333 9.87791 14.2348 11.1943 25.291Z" fill="#56B5CB"/>
<path d="M235.999 117.294C235.616 116.024 235.656 114.664 236.114 113.419C236.847 111.523 238.633 110.155 239.261 108.217C240.429 104.618 237.282 101.248 235.352 97.9858C233.581 94.9592 232.779 91.4633 233.052 87.9674C233.353 84.2142 234.89 80.6247 235.007 76.8617C235.112 73.3552 233.976 69.9441 232.854 66.6209C231.928 63.8744 230.985 61.0961 229.419 58.6575C226.457 54.0466 221.196 51.1486 215.786 50.6697C213.233 50.4424 210.736 51.2732 208.226 50.9482C204.742 50.4986 201.448 49.5945 197.895 49.4821C194.521 49.3819 190.789 49.8096 188.49 52.2824C186.733 54.1761 186.171 56.9104 184.563 58.9336C182.281 61.8048 178.291 62.7895 175.767 65.448C174.676 66.623 173.91 68.0618 173.545 69.6227C173.179 71.1836 173.227 72.8127 173.682 74.3498C174.032 75.4835 174.604 76.5367 174.975 77.6632C176.536 82.3694 174.486 87.403 173.247 92.2021C173.108 92.5942 173.082 93.0178 173.174 93.4238C173.37 94.0103 173.985 94.3181 174.496 94.6651C176.167 95.8038 177.02 97.8661 177.184 99.882C177.348 101.898 176.881 103.906 176.422 105.876C175.251 110.883 173.787 116.246 169.929 119.577C169.229 117.906 168.4 116.292 167.451 114.748C165.091 110.922 163.344 106.196 163.314 101.673C163.313 101.659 163.313 101.645 163.314 101.632C163.314 101.387 163.327 101.143 163.341 100.899C163.647 95.5619 165.954 90.4134 165.902 85.1012C165.902 84.6712 165.89 84.2403 165.866 83.8086C165.565 79.2612 163.38 75.0559 160.876 71.2489C159.007 68.4071 156.9 65.6631 154.203 63.5934C150.032 60.4193 144.732 59.0411 139.524 58.313C134.317 57.5848 129.579 56.9006 124.331 56.5488C118.686 56.17 112.475 55.9574 108.013 59.4321C102.195 63.9624 101.872 72.7126 97.4374 78.6015C94.7984 82.1055 90.5956 84.8129 89.2052 88.7934C88.8291 87.8166 88.5157 86.8168 88.2669 85.8C88.2522 85.7316 88.2376 85.6657 88.2229 85.5972C89.8997 80.7943 90.2898 75.6361 89.3543 70.6356C89.4646 69.8258 89.521 69.0094 89.5229 68.1921C89.5502 67.3026 89.454 66.4137 89.237 65.5507C88.609 63.1707 86.8766 61.2672 85.2028 59.4614C84.5934 58.772 83.9316 58.1307 83.2235 57.5433C78.8432 52.2363 72.719 48.6591 65.9446 47.4508C59.1703 46.2425 52.187 47.4816 46.242 50.9469C40.2969 54.4122 35.7773 59.878 33.4903 66.3681C31.2033 72.8582 31.2978 79.9499 33.757 86.3767C33.542 88.0432 32.8969 89.6632 31.7118 90.8386C31.1718 91.3737 30.473 92.0432 30.5902 92.7274C30.5539 92.9222 30.5813 93.1236 30.6684 93.3016C30.7885 93.5149 30.9556 93.6979 31.1571 93.8368C32.8666 95.1432 34.9956 95.7778 37.1413 95.6205C38.9519 100.942 42.5017 105.499 47.2183 108.556C47.2183 108.719 47.2126 108.877 47.2012 109.031C47.2012 109.302 47.1792 109.571 47.167 109.844C47.167 109.905 47.167 109.966 47.167 110.027C47.167 110.005 47.167 109.981 47.167 109.957C47.167 109.932 38.6587 121.048 30.7955 121.461C26.5975 121.681 22.9347 124.513 20.1589 127.75C16.8259 131.635 14.7685 136.102 14.5926 137.339C14.2676 139.606 12 150.626 12 150.626H77.3249C76.5527 154.595 75.5118 159.65 75.5118 159.65H181.265C181.02 156.251 180.749 153.109 180.497 150.448H193.792L193.778 150.529H255.11L259 144.691C258.035 127.682 248.002 118.331 235.999 117.294ZM83.3041 98.2937C84.6839 99.0361 86.1661 99.5697 87.7025 99.8771C88.3695 100.014 89.1148 100.099 89.6841 99.7256C90.0615 99.4406 90.3408 99.0452 90.4832 98.5943L90.5125 98.6676C92.1619 102.822 93.6891 107.107 93.9847 111.569C94.0116 111.99 94.0287 112.41 94.0312 112.833C94.0378 115.378 93.5126 117.896 92.4893 120.227C86.9647 117.321 81.637 114.056 76.5405 110.453L76.196 110.306C76.196 110.333 76.3157 110.638 76.4574 111.154C76.4916 111.279 76.5283 111.415 76.5649 111.562C76.2155 110.433 75.8978 109.28 75.6193 108.104C75.5875 107.965 75.5557 107.826 75.524 107.687C78.8515 105.244 81.5241 102.018 83.3041 98.2937Z" fill="url(#paint0_linear_1060_152)"/>
<path d="M196.915 50.3468C193.595 50.2466 189.92 50.6693 187.659 53.1031C185.929 54.965 185.377 57.6578 183.794 59.6493C181.548 62.4764 177.622 63.444 175.134 66.061C174.06 67.2175 173.306 68.6338 172.947 70.1702C172.587 71.7067 172.633 73.3104 173.081 74.8235C173.426 75.9377 173.988 76.9762 174.355 78.0831C175.892 82.7258 173.885 87.669 172.644 92.3923C172.506 92.7797 172.481 93.1985 172.573 93.5994C172.764 94.1761 173.372 94.4791 173.873 94.8212C175.518 95.9427 176.358 97.9709 176.507 99.9526C176.656 101.934 176.209 103.913 175.757 105.851C174.557 110.983 173.042 116.507 168.876 119.74C167.117 121.121 164.766 122.24 164.307 124.439C163.769 127.014 166.227 129.204 168.585 130.369C175.508 133.79 183.545 133.839 191.117 135.364C197.785 136.708 204.437 139.254 211.186 138.384C214.194 137.998 217.07 136.94 219.916 135.892L237.642 129.36C238.142 129.207 238.613 128.97 239.034 128.659C240.102 127.77 240.139 126.079 239.557 124.815C238.976 123.552 237.92 122.584 236.992 121.548C234.968 119.283 233.429 116.085 234.533 113.255C235.266 111.388 237.014 110.042 237.632 108.124C238.78 104.581 235.677 101.262 233.795 98.0515C232.055 95.0756 231.265 91.6388 231.533 88.2017C231.828 84.5071 233.341 80.9738 233.451 77.2694C233.554 73.8192 232.437 70.4618 231.332 67.1899C230.421 64.4874 229.492 61.7531 227.951 59.3511C225.035 54.8135 219.858 51.962 214.531 51.4879C212.016 51.2656 209.561 52.0817 207.09 51.764C203.657 51.3413 200.412 50.4519 196.915 50.3468Z" fill="#F7D6C8"/>
<path d="M201.872 147.308C201.872 147.308 181.777 134.709 189.591 120.185C191.4 116.828 192.199 113.651 192.362 110.751C192.405 109.986 192.405 109.22 192.362 108.456C192.362 108.419 192.362 108.383 192.362 108.346C192.336 107.952 192.301 107.564 192.257 107.183C191.326 99.5153 186.4 94.5183 186.4 94.5183C186.4 94.5183 219.732 84.7907 214.151 93.5604C211.561 97.6313 212.336 101.624 214.07 105.756C214.254 106.191 214.449 106.631 214.652 107.068C216.656 111.425 219.436 115.938 220.213 120.832C221.807 130.88 201.872 147.308 201.872 147.308Z" fill="#EFB7B9"/>
<path opacity="0.1" d="M214.151 93.5605C211.561 97.6314 212.336 101.624 214.07 105.756C210.855 107.829 207.164 109.049 203.346 109.301C199.529 109.552 195.71 108.827 192.25 107.193C191.326 99.5154 186.4 94.5184 186.4 94.5184C186.4 94.5184 219.735 84.7883 214.151 93.5605Z" fill="black"/>
<path d="M201.87 108.872C214.289 108.872 224.357 98.8037 224.357 86.3841C224.357 73.9645 214.289 63.8965 201.87 63.8965C189.45 63.8965 179.382 73.9645 179.382 86.3841C179.382 98.8037 189.45 108.872 201.87 108.872Z" fill="#EFB7B9"/>
<path opacity="0.1" d="M192.363 108.457C192.363 108.423 192.363 108.388 192.363 108.353L192.389 108.312C192.375 108.363 192.365 108.411 192.363 108.457Z" fill="black"/>
<path opacity="0.1" d="M201.872 147.308C201.872 147.308 181.777 134.709 189.591 120.185C191.4 116.828 192.199 113.651 192.362 110.751C192.819 114.338 195.295 118.797 199.8 124.97C201.755 127.658 202.596 131.416 202.862 135.171L203.309 135.496L205.508 134.167C205.753 130.013 206.593 125.815 208.582 122.839C213.809 115.02 215.05 111.11 214.664 107.059C216.668 111.415 219.449 115.929 220.226 120.823C221.807 130.881 201.872 147.308 201.872 147.308Z" fill="black"/>
<path d="M234.088 117.045C222.114 116.175 214.54 106.88 214.54 106.88C215.177 111.234 214.141 115.132 208.558 123.496C206.581 126.462 205.743 130.653 205.499 134.817L203.299 136.146L202.852 135.821C202.586 132.068 201.748 128.305 199.791 125.619C194.21 117.964 191.727 112.94 192.374 108.952C192.374 108.952 186.234 118.919 174.273 119.718C162.312 120.517 152.264 128.969 151.304 144.439L155.13 149.703H192.875L192.861 149.783H253.215L257.057 144.034C256.096 127.144 246.061 117.915 234.088 117.045Z" fill="#56B5CB"/>
<path opacity="0.05" d="M234.088 117.045C222.114 116.175 214.54 106.88 214.54 106.88C215.177 111.234 214.141 115.132 208.558 123.496C206.581 126.462 205.743 130.653 205.499 134.817L203.299 136.146L202.852 135.821C202.586 132.068 201.748 128.305 199.791 125.619C194.21 117.964 191.727 112.94 192.374 108.952C192.374 108.952 186.234 118.919 174.273 119.718C162.312 120.517 152.264 128.969 151.304 144.439L155.13 149.703H192.875L192.861 149.783H253.215L257.057 144.034C256.096 127.144 246.061 117.915 234.088 117.045Z" fill="black"/>
<path opacity="0.1" d="M217.073 75.5155C216.096 77.9346 214.361 79.9774 212.465 81.7709C209.845 84.2511 206.551 86.4356 202.95 86.267C204.913 84.4377 206.335 82.1025 207.057 79.518C204.785 80.8424 203.067 82.9389 200.897 84.4319C198.727 85.9249 195.661 86.6946 193.54 85.1356C197.392 83.1989 200.592 80.1754 202.744 76.4392C197.594 77.7758 194.95 83.5767 190.309 86.1814C188.135 87.4032 185.591 87.8626 183.099 87.8088C181.327 87.7722 179.353 87.3592 178.366 85.8882C177.789 85.033 177.654 83.9578 177.632 82.9242C177.525 78.2376 179.433 73.6389 182.373 69.9907C185.312 66.3426 189.215 63.5692 193.388 61.4165C194.874 60.6492 196.423 59.9504 198.077 59.706C200.135 59.4079 202.231 59.8453 204.25 60.3095C206.874 60.9107 209.513 61.5704 211.93 62.7531C217.088 65.3065 219.341 69.9345 217.073 75.5155Z" fill="black"/>
<path d="M217.073 75.195C216.096 77.614 214.361 79.6568 212.465 81.4504C209.845 83.9305 206.551 86.115 202.95 85.9464C204.913 84.1172 206.335 81.782 207.057 79.1974C204.785 80.5218 203.067 82.6184 200.897 84.1113C198.727 85.6043 195.661 86.374 193.54 84.8151C197.392 82.8783 200.592 79.8549 202.744 76.1186C197.594 77.4552 194.95 83.2561 190.309 85.8609C188.135 87.0827 185.591 87.542 183.099 87.4883C181.327 87.4516 179.353 87.0387 178.366 85.5677C177.789 84.7125 177.654 83.6373 177.632 82.6037C177.525 77.917 179.433 73.3184 182.373 69.6702C185.312 66.022 189.215 63.2486 193.388 61.0959C194.874 60.3286 196.423 59.6298 198.077 59.3854C200.135 59.0873 202.231 59.5247 204.25 59.989C206.874 60.5901 209.513 61.2498 211.93 62.4325C217.088 64.9811 219.341 69.614 217.073 75.195Z" fill="#F7D6C8"/>
<path d="M62.0182 104.981C77.7846 104.981 90.5658 92.2002 90.5658 76.4338C90.5658 60.6674 77.7846 47.8862 62.0182 47.8862C46.2519 47.8862 33.4707 60.6674 33.4707 76.4338C33.4707 92.2002 46.2519 104.981 62.0182 104.981Z" fill="#C3705A"/>
<path d="M87.6168 131.376C87.6168 131.376 61.4713 138.074 60.8237 138.707C60.1762 139.339 38.815 140.461 45.0338 127.383C47.3185 122.582 48.269 116.06 48.5573 109.729C48.5695 109.46 48.5818 109.194 48.5915 108.928C48.9849 98.3154 47.5872 88.468 47.5872 88.468C47.5872 88.468 77.8867 76.4948 75.6558 94.6892C75.0987 99.2146 75.5605 103.762 76.5721 108.038C76.9093 109.465 77.3052 110.86 77.745 112.214C81.2832 123.122 87.6168 131.376 87.6168 131.376Z" fill="#ECB4B6"/>
<path opacity="0.1" d="M76.569 108.043C72.5504 111.023 67.718 112.704 62.7178 112.863C57.7176 113.022 52.7881 111.651 48.5884 108.932C48.9818 98.3203 47.5841 88.4729 47.5841 88.4729C47.5841 88.4729 77.8836 76.4997 75.6527 94.6941C75.098 99.2219 75.5599 103.769 76.569 108.043Z" fill="black"/>
<path d="M61.9387 112.395C75.5027 112.395 86.4984 101.399 86.4984 87.8351C86.4984 74.2712 75.5027 63.2754 61.9387 63.2754C48.3748 63.2754 37.379 74.2712 37.379 87.8351C37.379 101.399 48.3748 112.395 61.9387 112.395Z" fill="#ECB4B6"/>
<path opacity="0.1" d="M87.6168 131.376C87.6168 131.376 61.4713 138.074 60.8237 138.707C60.1762 139.34 38.815 140.461 45.0338 127.384C47.3185 122.582 48.269 116.06 48.5573 109.729C48.8017 113.038 50.6929 121.05 50.9349 123.716C50.9502 123.872 50.9814 124.026 51.0277 124.175C51.382 125.36 52.6453 126.726 54.1676 128.021L54.258 128.097C56.1516 129.685 58.5013 130.63 60.9673 130.795C63.4334 130.96 65.8879 130.336 67.9759 129.013C70.1492 127.644 72.2351 126.141 74.2215 124.512C77.0657 122.164 77.9527 119 78.0627 116.205C78.1082 114.863 78.0016 113.52 77.745 112.202C81.2832 123.122 87.6168 131.376 87.6168 131.376Z" fill="black"/>
<path d="M120.632 149.879H13.9282C13.9282 149.879 16.1616 139.035 16.4792 136.801C16.6527 135.579 18.6784 131.181 21.96 127.362C24.6919 124.185 28.2961 121.387 32.4281 121.17C40.1618 120.764 48.5357 109.847 48.5357 109.847C48.7214 113.023 50.6811 121.319 50.9279 124.041C50.9433 124.197 50.9744 124.351 51.0207 124.501C51.375 125.686 52.6383 127.052 54.1606 128.347L54.2511 128.422C56.1442 130.011 58.4938 130.957 60.9599 131.122C63.4261 131.287 65.8808 130.663 67.9689 129.341C70.1418 127.971 72.2277 126.468 74.2146 124.84C77.0588 122.492 77.9458 119.328 78.0557 116.532C78.1118 114.677 77.8869 112.824 77.3887 111.037C77.2494 110.529 77.1443 110.23 77.1297 110.204L77.4693 110.348C77.4693 110.348 91.9178 120.855 105.154 125.15C106.706 125.656 108.169 126.397 109.494 127.35C110.567 128.125 111.555 129.012 112.441 129.996C114.233 132.022 115.715 134.302 116.839 136.762C119.908 143.267 120.632 149.879 120.632 149.879Z" fill="#56B5CB"/>
<path opacity="0.05" d="M120.632 149.879H13.9282C13.9282 149.879 16.1616 139.035 16.4792 136.801C16.6527 135.579 18.6784 131.181 21.96 127.362C24.6919 124.185 28.2961 121.387 32.4281 121.17C40.1618 120.764 48.5357 109.847 48.5357 109.847C48.7214 113.023 50.6811 121.319 50.9279 124.041C50.9433 124.197 50.9744 124.351 51.0207 124.501C51.375 125.686 52.6383 127.052 54.1606 128.347L54.2511 128.422C56.1442 130.011 58.4938 130.957 60.9599 131.122C63.4261 131.287 65.8808 130.663 67.9689 129.341C70.1418 127.971 72.2277 126.468 74.2146 124.84C77.0588 122.492 77.9458 119.328 78.0557 116.532C78.1118 114.677 77.8869 112.824 77.3887 111.037C77.2494 110.529 77.1443 110.23 77.1297 110.204L77.4693 110.348C77.4693 110.348 91.9178 120.855 105.154 125.15C106.706 125.656 108.169 126.397 109.494 127.35C110.567 128.125 111.555 129.012 112.441 129.996C114.233 132.022 115.715 134.302 116.839 136.762C119.908 143.267 120.632 149.879 120.632 149.879Z" fill="black"/>
<path opacity="0.1" d="M73.7441 79.5883C74.3794 82.0318 75.2102 84.7465 77.3922 86.0196C77.6846 86.1597 77.954 86.3435 78.1913 86.5645C78.7288 87.1485 78.5651 88.0599 78.4845 88.8516C78.2059 91.5688 79.3739 94.3226 81.2896 96.2701C83.2053 98.2176 85.7979 99.4076 88.4736 99.9549C89.1284 100.089 89.8639 100.175 90.4284 99.8059C90.8098 99.516 91.0902 99.1133 91.2298 98.655C91.9751 96.6733 91.6599 94.4473 91.0368 92.424C90.4137 90.4008 89.4949 88.4704 89.0233 86.4057C87.9018 81.5064 89.3874 76.4435 90.057 71.4612C90.2793 69.8045 90.4088 68.0965 89.9812 66.4813C89.363 64.1404 87.6574 62.2638 86.0105 60.4874C85.1235 59.532 84.217 58.5594 83.0783 57.9339C79.7209 56.0988 75.3983 57.7286 71.8137 56.392C70.3793 55.8569 69.16 54.8795 67.7941 54.1929C64.8937 52.7268 61.4556 52.6461 58.2766 53.3132C55.0976 53.9803 52.119 55.3511 49.1697 56.7097L46.9143 57.7311C43.7377 59.1972 40.3339 60.8539 38.6235 63.9205C36.8031 67.185 37.3089 71.3634 35.4884 74.628C34.9362 75.6054 34.1665 76.5437 34.0223 77.6677C33.9246 78.4789 34.1738 79.2902 34.406 80.0745C34.9729 81.9829 35.4664 83.9451 35.4225 85.939C35.3785 87.9329 34.7432 89.9756 33.3308 91.3782C32.7346 91.9695 31.938 92.727 32.3045 93.4821C32.4248 93.6932 32.592 93.8738 32.7932 94.0099C33.9532 94.8908 35.3167 95.4646 36.7575 95.6782C38.1982 95.8917 39.6696 95.7381 41.0352 95.2316C42.1055 94.8236 43.1171 94.1687 43.7231 93.2035C44.1259 92.4965 44.4177 91.7317 44.5881 90.9359C45.3602 88.0599 46.1373 85.135 46.0762 82.1564C46.042 80.4459 45.7292 78.7208 45.9784 77.025C46.2277 75.3292 47.2173 73.5821 48.8667 73.1154C50.0884 72.766 51.3957 73.1887 52.6712 73.1765C54.5087 73.1618 56.7617 71.124 58.4648 71.7226C59.9309 72.2406 61.0916 75.0458 62.3035 76.1209C65.3775 78.865 69.6683 80.2993 73.7441 79.5883Z" fill="black"/>
<path d="M73.745 79.2682C74.3803 81.7118 75.2111 84.4265 77.3932 85.6996C77.6813 85.8368 77.9473 86.0164 78.1824 86.2323C78.72 86.8163 78.5563 87.7277 78.4757 88.5194C78.1971 91.2366 79.3651 93.9904 81.2808 95.9379C83.1965 97.8854 85.7891 99.0754 88.4647 99.6227C89.1196 99.7571 89.8551 99.8426 90.4195 99.4736C90.801 99.1838 91.0814 98.7811 91.221 98.3228C91.9663 96.3411 91.6511 94.115 91.028 92.0918C90.4049 90.0686 89.4861 88.1382 89.0145 86.0734C87.8929 81.1742 89.3786 76.1112 90.0481 71.1289C90.2705 69.4722 90.4 67.7642 89.9724 66.149C89.3542 63.8081 87.6486 61.9315 86.0017 60.1551C85.1147 59.1997 84.2081 58.2272 83.0694 57.6016C79.7121 55.7665 75.3895 57.3964 71.8049 56.0598C70.3705 55.5246 69.1512 54.5472 67.7853 53.8606C64.8848 52.3945 61.4468 52.3139 58.2678 52.9809C55.0888 53.648 52.1102 55.0188 49.1608 56.3774L46.9348 57.4037C43.7582 58.8698 40.3544 60.5265 38.644 63.5931C36.8236 66.8576 37.3294 71.0361 35.509 74.3006C34.9567 75.278 34.187 76.2163 34.0428 77.3403C33.9451 78.1516 34.1943 78.9628 34.4265 79.7472C34.9934 81.6556 35.487 83.6177 35.443 85.6116C35.399 87.6055 34.7637 89.6483 33.3513 91.0509C32.7551 91.6422 31.9585 92.3997 32.3251 93.1547C32.4453 93.3658 32.6125 93.5464 32.8138 93.6825C33.9737 94.5634 35.3372 95.1372 36.778 95.3508C38.2188 95.5644 39.6901 95.4108 41.0557 94.9043C42.126 94.4962 43.1376 93.8413 43.7436 92.8762C44.1464 92.1691 44.4382 91.4043 44.6086 90.6086C45.3807 87.7326 46.1578 84.8077 46.0967 81.829C46.0625 80.1186 45.7497 78.3935 45.9989 76.6977C46.2482 75.0019 47.2378 73.2548 48.8872 72.7881C50.1089 72.4386 51.4162 72.8614 52.6917 72.8491C54.5292 72.8345 56.7822 70.7966 58.4853 71.3953C59.9514 71.9133 61.1121 74.7184 62.324 75.7936C65.3784 78.5474 69.6692 79.9818 73.745 79.2682Z" fill="#C3705A"/>
<path d="M155.56 89.7H99.579V137.705H155.56V89.7Z" fill="#463A3E"/>
<path opacity="0.05" d="M155.56 89.7H99.579V137.705H155.56V89.7Z" fill="black"/>
<path d="M147.533 158.758H99.6399C100.258 155.271 102.066 151.449 105.59 147.33C108.372 144.091 110.647 140.45 112.339 136.529C112.793 135.482 113.201 134.432 113.561 133.38C114.619 130.255 115.339 127.026 115.708 123.747C115.708 123.654 115.73 123.562 115.74 123.469C115.987 121.204 116.087 118.925 116.038 116.647C116.038 116.483 116.038 116.324 116.038 116.158C115.867 110.568 114.943 105.026 113.289 99.6837L113.228 99.4931C112.708 97.8535 112.327 96.9323 112.327 96.9323C112.327 96.9323 113.277 96.4167 114.846 95.6568L114.978 95.5933C120.747 92.8223 134.404 87.041 140.425 91.1608L140.522 91.2267C142.629 92.727 143.762 95.4809 143.23 100.067C143.23 100.084 143.23 100.104 143.23 100.121C143.23 100.207 143.21 100.29 143.203 100.365C142.88 103.527 142.728 106.703 142.746 109.88C142.746 110.039 142.746 110.198 142.746 110.369C142.746 111.114 142.754 111.868 142.77 112.632C142.77 112.734 142.77 112.837 142.77 112.94C142.819 115.408 142.929 117.956 143.083 120.541C143.296 124.126 143.599 127.777 143.948 131.359C144.097 132.891 144.258 134.413 144.437 135.911C144.456 136.087 144.476 136.268 144.495 136.441C144.701 138.267 144.913 140.055 145.131 141.79L145.145 141.903C145.976 148.793 146.895 154.809 147.533 158.758Z" fill="#C17174"/>
<path opacity="0.1" d="M143.209 100.077C143.209 100.095 143.209 100.114 143.209 100.131C142.865 103.378 142.702 106.641 142.721 109.905C142.721 110.064 142.721 110.223 142.721 110.394C139.505 114.126 135.189 116.744 130.393 117.872C125.597 118.999 120.567 118.578 116.025 116.669C116.025 116.505 116.025 116.346 116.025 116.18C115.853 110.523 114.908 104.916 113.215 99.5154C112.695 97.8758 112.313 96.9546 112.313 96.9546C112.313 96.9546 113.264 96.4391 114.833 95.6791C120.546 92.918 134.486 86.9558 140.502 91.2368C142.606 92.7371 143.739 95.491 143.209 100.077Z" fill="black"/>
<path d="M125.07 117.993C137.933 117.993 148.361 107.565 148.361 94.7012C148.361 81.8376 137.933 71.4097 125.07 71.4097C112.206 71.4097 101.778 81.8376 101.778 94.7012C101.778 107.565 112.206 117.993 125.07 117.993Z" fill="#C17174"/>
<path opacity="0.1" d="M126.303 158.6H76.6138C76.6138 158.6 78.8471 147.755 79.1648 145.522C79.3383 144.3 81.364 139.902 84.6456 136.083C88.8606 132.72 94.0811 130.868 99.4728 130.822C108.976 130.68 111.742 133.952 112.492 136.371C112.754 137.182 112.821 138.044 112.687 138.885L114.486 141.49L126.303 158.6Z" fill="black"/>
<path d="M126.144 158.758H76.4556C76.4556 158.758 78.6889 147.913 79.0066 145.68C79.1801 144.458 81.2057 140.06 84.4874 136.241C88.7024 132.878 93.9229 131.026 99.3146 130.98C108.817 130.838 111.583 134.11 112.334 136.529C112.596 137.34 112.663 138.202 112.529 139.043L114.328 141.648L126.144 158.758Z" fill="#56B5CB"/>
<path opacity="0.1" d="M180.385 158.6H128.323C130.806 153.317 137.313 139.232 137.675 135.975C137.814 134.714 139.158 133.532 140.937 132.527C141.499 132.206 142.077 131.914 142.669 131.653L142.777 131.604C143.103 131.46 143.432 131.328 143.766 131.205C148.27 129.557 153.218 129.596 157.694 131.315C161.968 132.94 167.468 135.13 171.749 137.18L171.784 137.197C172.883 137.725 173.907 138.24 174.809 138.736C176.612 139.726 177.929 140.63 178.435 141.353C178.667 141.686 178.924 143.184 179.205 145.507C179.578 148.65 179.986 153.312 180.385 158.6Z" fill="black"/>
<path d="M180.543 158.758H128.481C130.964 153.475 137.471 139.391 137.833 136.134C137.972 134.873 139.316 133.69 141.095 132.686C141.656 132.364 142.235 132.072 142.827 131.811L142.935 131.762C143.26 131.619 143.59 131.486 143.924 131.364C148.428 129.716 153.376 129.755 157.852 131.474C162.126 133.099 167.626 135.288 171.907 137.339L171.942 137.356C173.041 137.883 174.065 138.399 174.967 138.895C176.77 139.885 178.087 140.789 178.593 141.512C178.825 141.844 179.082 143.342 179.363 145.666C179.739 148.808 180.145 153.473 180.543 158.758Z" fill="#56B5CB"/>
<path opacity="0.1" d="M172.164 133.211C172.164 133.962 172.144 134.714 172.103 135.467C172.08 135.833 172.053 136.2 172.02 136.566C171.998 136.83 171.971 137.092 171.944 137.353L171.91 137.656C171.512 141.209 170.776 144.742 170.688 148.312C170.688 148.481 170.688 148.649 170.688 148.818C170.671 152.17 171.214 155.472 171.949 158.758H141.967C141.919 158.15 141.894 157.536 141.901 156.933C141.901 156.388 141.936 155.843 141.992 155.296C142.454 150.797 144.753 146.587 145.1 142.118L145.115 141.913C145.137 141.578 145.149 141.241 145.144 140.903C145.144 140.874 145.144 140.845 145.144 140.813C145.106 139.335 144.879 137.869 144.467 136.449C144.448 136.378 144.428 136.307 144.409 136.236C143.99 134.828 143.5 133.442 142.942 132.082L142.835 131.811C142.021 129.778 141.166 127.762 140.587 125.741C140.127 124.237 139.889 122.672 139.881 121.099C139.881 120.818 139.898 120.537 139.92 120.256C139.939 120.026 139.966 119.796 140 119.564C140.054 119.202 140.126 118.842 140.215 118.487C140.704 116.561 141.748 114.755 142.747 112.967C143.859 110.975 144.919 109.006 145.11 106.912C145.134 106.647 145.143 106.381 145.137 106.115C145.129 105.773 145.096 105.431 145.039 105.094C144.782 103.608 144.018 102.272 143.39 100.901C143.326 100.761 143.263 100.622 143.201 100.48C143.201 100.458 143.182 100.436 143.175 100.414C141.953 97.5922 141.244 94.5818 140.499 91.5861C140.467 91.4566 140.435 91.3271 140.401 91.2C140.218 90.4669 140.03 89.7339 139.829 89.0008C138.735 85.0033 137.176 80.9641 134.209 78.0784C131.243 75.1926 126.512 73.7314 122.798 75.5689C119.585 77.1694 117.845 80.7516 117.061 84.2507C116.276 87.7498 116.213 91.4028 115.194 94.8433C115.121 95.0941 115.039 95.3442 114.95 95.5934C114.906 95.7205 114.862 95.8378 114.818 95.9771C114.38 97.2232 113.84 98.4572 113.259 99.6839L113.198 99.8134C111.341 103.765 109.183 107.647 109.114 111.618V111.669C109.114 111.777 109.114 111.882 109.114 111.989C109.127 112.933 109.27 113.87 109.54 114.775C110.028 116.402 110.913 117.822 111.944 119.173C112.148 119.439 112.356 119.702 112.57 119.963C113.596 121.223 114.71 122.445 115.685 123.745L115.717 123.787C116.458 124.747 117.084 125.791 117.581 126.897C118.171 128.283 118.479 129.772 118.487 131.278C118.495 132.784 118.204 134.277 117.63 135.669C117.353 136.313 117.036 136.938 116.68 137.541C116.052 138.626 115.36 139.682 114.815 140.811C114.632 141.189 114.468 141.575 114.326 141.966C113.105 145.114 112.841 148.596 111.844 151.843C111.072 154.336 109.87 156.676 108.293 158.756H76.5278C76.8968 156.95 78.727 148.004 79.0153 145.996C79.1888 144.774 81.2145 140.376 84.4961 136.556C84.22 136.774 83.9537 136.994 83.6971 137.214C81.6276 138.977 79.8345 141.041 78.3776 143.337C78.4484 143.117 78.5217 142.895 78.595 142.675C79.0422 141.341 79.526 140.019 80.0172 138.714C81.4393 134.956 83.0227 131.122 85.8571 128.273C87.4576 126.665 89.4051 125.426 90.9299 123.748C93.6177 120.793 94.7295 116.7 94.6978 112.688C94.6978 112.273 94.6807 111.86 94.6538 111.447C94.363 107.049 92.8602 102.838 91.2329 98.7407C90.3581 96.5415 89.4296 94.2299 89.4711 91.8988C89.4737 91.5718 89.4974 91.2454 89.542 90.9214C90.2139 86.0906 95.1009 83.1975 98.0356 79.3001C102.4 73.5017 102.717 64.8834 108.443 60.4313C112.841 57.0104 118.95 57.2206 124.504 57.592C129.669 57.939 134.331 58.6109 139.458 59.3293C144.584 60.0477 149.787 61.3965 153.899 64.556C156.555 66.5939 158.627 69.2939 160.467 72.0918C162.93 75.8401 165.083 79.9794 165.379 84.4535C165.401 84.7736 165.413 85.0912 165.413 85.4064C165.464 90.6355 163.194 95.7034 162.894 100.954C162.881 101.199 162.872 101.443 162.869 101.688C162.868 101.701 162.868 101.714 162.869 101.727C162.815 106.279 164.563 111.058 166.94 114.922C170.318 120.427 172.125 126.752 172.164 133.211Z" fill="black"/>
<path d="M172.165 133.212C172.165 133.857 172.141 134.504 172.104 135.147C172.082 135.513 172.054 135.88 172.021 136.246C171.989 136.613 171.952 136.976 171.911 137.336C171.513 140.889 170.778 144.422 170.69 147.992C170.69 148.266 170.69 148.542 170.69 148.816C170.707 152.166 171.274 155.47 172.021 158.756H141.995C141.939 158.148 141.905 157.534 141.9 156.931C141.894 156.278 141.924 155.625 141.991 154.976C142.452 150.477 144.752 146.267 145.099 141.798C145.123 141.471 145.14 141.143 145.143 140.821C145.143 140.745 145.143 140.667 145.143 140.591C145.111 139.009 144.866 137.439 144.412 135.924C143.993 134.516 143.504 133.129 142.946 131.77C142.101 129.647 141.194 127.538 140.588 125.417C140.161 124.011 139.923 122.554 139.882 121.084C139.875 120.696 139.888 120.308 139.921 119.921C139.94 119.692 139.967 119.462 140.002 119.23C140.055 118.867 140.127 118.508 140.217 118.152C140.705 116.227 141.749 114.421 142.748 112.632C143.862 110.638 144.928 108.664 145.116 106.568C145.13 106.409 145.138 106.247 145.143 106.079C145.154 105.63 145.122 105.18 145.045 104.737C144.788 103.252 144.024 101.915 143.396 100.544C143.332 100.405 143.269 100.266 143.207 100.124C141.969 97.2847 141.253 94.2596 140.505 91.2296C140.29 90.3646 140.07 89.4996 139.838 88.642C138.743 84.6444 137.184 80.6052 134.218 77.7195C131.251 74.8337 126.528 73.4018 122.816 75.2491C119.603 76.8496 117.863 80.4318 117.079 83.9309C116.295 87.43 116.231 91.083 115.212 94.5235C115.1 94.9022 114.968 95.281 114.843 95.6573C114.389 96.945 113.822 98.223 113.226 99.4936C111.317 103.547 109.096 107.535 109.142 111.618V111.67C109.155 112.613 109.298 113.551 109.568 114.455C110.056 116.083 110.941 117.502 111.972 118.854C112.176 119.119 112.384 119.382 112.598 119.643C113.636 120.918 114.762 122.152 115.745 123.467C116.486 124.427 117.112 125.471 117.609 126.577C118.199 127.963 118.507 129.453 118.515 130.959C118.523 132.465 118.232 133.957 117.658 135.35C117.381 135.993 117.064 136.618 116.708 137.221C116.08 138.306 115.388 139.362 114.843 140.491C114.66 140.87 114.496 141.256 114.354 141.647C113.133 144.794 112.869 148.276 111.872 151.523C111.059 154.145 109.773 156.595 108.077 158.754H76.4556C76.4556 158.754 78.6889 147.909 79.0066 145.676C79.1654 144.559 80.8783 140.789 83.6884 137.214C83.9327 136.887 84.2113 136.559 84.4874 136.237C82.1896 138.053 80.1981 140.226 78.5887 142.673L78.3713 143.015C78.8795 141.454 79.4391 139.912 80.0133 138.392C81.4354 134.634 83.0188 130.8 85.8533 127.951C87.4538 126.343 89.4013 125.104 90.926 123.425C93.5357 120.549 94.6646 116.584 94.6939 112.674C94.6939 112.151 94.6939 111.631 94.65 111.112C94.3592 106.714 92.8564 102.504 91.229 98.4062C90.3958 96.2999 89.5186 94.1057 89.4673 91.8723C89.4559 91.4418 89.4796 91.0112 89.5381 90.5846C90.2125 85.7806 95.0996 82.8997 98.0342 78.9901C102.398 73.1916 102.716 64.5734 108.441 60.1213C112.839 56.7004 118.948 56.9105 124.502 57.2819C129.668 57.6289 134.33 58.3009 139.457 59.0193C144.583 59.7377 149.793 61.084 153.9 64.2337C156.556 66.2838 158.628 68.9717 160.468 71.7719C162.931 75.5203 165.084 79.6596 165.38 84.1337C165.409 84.5588 165.421 84.9832 165.414 85.4068C165.373 90.521 163.188 95.4911 162.895 100.637C162.875 100.984 162.865 101.329 162.87 101.678C162.869 101.691 162.869 101.704 162.87 101.717C162.9 106.174 164.62 110.822 166.941 114.587C170.378 120.19 172.187 126.639 172.165 133.212Z" fill="#463A3E"/>
<defs>
<linearGradient id="paint0_linear_1060_152" x1="135.495" y1="159.645" x2="135.495" y2="46.9995" gradientUnits="userSpaceOnUse">
<stop stop-color="#808080" stop-opacity="0.25"/>
<stop offset="0.54" stop-color="#808080" stop-opacity="0.12"/>
<stop offset="1" stop-color="#808080" stop-opacity="0.1"/>
</linearGradient>
</defs>
</svg>
