<svg width="202" height="202" viewBox="0 0 202 202" fill="none" xmlns="http://www.w3.org/2000/svg">
<g clip-path="url(#clip0_6_429)">
<path d="M100.616 196.364C153.186 196.364 195.803 171.76 195.803 141.408C195.803 111.057 153.186 86.452 100.616 86.452C48.0462 86.452 5.42978 111.057 5.42978 141.408C5.42978 171.76 48.0462 196.364 100.616 196.364Z" fill="#F0F0F0"/>
<path d="M155.281 160.477C149.04 156.873 149.04 151.031 155.281 147.428C161.523 143.824 171.643 143.824 177.885 147.428C184.127 151.031 184.127 156.873 177.885 160.477C171.643 164.081 161.523 164.081 155.281 160.477Z" fill="#E0E0E0"/>
<path d="M28.3284 160.978L11.9099 151.5C10.9847 150.967 10.9847 150.098 11.9099 149.565L107.411 94.4269C107.93 94.1639 108.504 94.0269 109.086 94.0269C109.668 94.0269 110.242 94.1639 110.761 94.4269L127.183 103.905C128.108 104.438 128.108 105.307 127.183 105.84L31.6816 160.978C31.1619 161.241 30.5875 161.378 30.005 161.378C29.4225 161.378 28.8482 161.241 28.3284 160.978Z" fill="#E0E0E0"/>
<path d="M87.3448 144.083L101.461 135.922C102.915 135.081 103.642 133.983 103.642 132.88C103.642 131.777 103.642 130.916 103.642 130.916L89.0012 122.658C88.5923 122.394 88.2517 122.036 88.0073 121.615C87.763 121.194 87.6218 120.721 87.5953 120.234V102.826L62.9513 117.071V134.471C62.9797 134.957 63.1217 135.43 63.3659 135.851C63.6101 136.272 63.9496 136.629 64.3572 136.895L76.8166 144.07C79.7173 145.763 84.436 145.763 87.3448 144.083Z" fill="#72B2D5"/>
<g opacity="0.6">
<path opacity="0.6" d="M87.3448 144.083L101.461 135.922C102.915 135.081 103.642 133.983 103.642 132.88C103.642 131.777 103.642 130.916 103.642 130.916L89.0012 122.658C88.5923 122.394 88.2517 122.036 88.0073 121.615C87.763 121.194 87.6218 120.721 87.5953 120.234V102.826L62.9513 117.071V134.471C62.9797 134.957 63.1217 135.43 63.3659 135.851C63.6101 136.272 63.9496 136.629 64.3572 136.895L76.8166 144.07C79.7173 145.763 84.436 145.763 87.3448 144.083Z" fill="black"/>
</g>
<path opacity="0.3" d="M68.8618 137.554V139.509L64.3451 136.903C63.9376 136.638 63.5983 136.28 63.3548 135.859C63.1112 135.438 62.9702 134.965 62.9432 134.479V117.071L67.6377 114.36C67.7347 115.552 67.8397 116.784 67.9407 117.996L64.64 119.895V133.49C64.6662 133.976 64.8072 134.449 65.0516 134.871C65.296 135.292 65.6368 135.649 66.046 135.914L68.8618 137.554Z" fill="black"/>
<path d="M64.64 133.494C64.6678 133.98 64.8095 134.452 65.0537 134.873C65.298 135.295 65.6379 135.652 66.0459 135.918L76.8004 142.115C79.7092 143.792 84.4279 143.796 87.3408 142.115L101.481 133.954C104.394 132.274 104.394 129.551 101.481 127.87L90.7182 121.673C90.3111 121.407 89.9722 121.049 89.7287 120.628C89.4852 120.207 89.344 119.734 89.3163 119.249V105.65L64.6723 119.895L64.64 133.494Z" fill="#72B2D5"/>
<path opacity="0.3" d="M64.64 133.494C64.6678 133.98 64.8095 134.452 65.0537 134.873C65.298 135.295 65.6379 135.652 66.0459 135.918L76.8004 142.115C79.7092 143.792 84.4279 143.796 87.3408 142.115L101.481 133.954C104.394 132.274 104.394 129.551 101.481 127.87L90.7182 121.673C90.3111 121.407 89.9722 121.049 89.7287 120.628C89.4852 120.207 89.344 119.734 89.3163 119.249V105.65L64.6723 119.895L64.64 133.494Z" fill="black"/>
<path opacity="0.5" d="M93.5664 123.333L90.702 121.681C90.2949 121.415 89.956 121.057 89.7125 120.636C89.469 120.215 89.3278 119.742 89.3002 119.257V105.65L64.6562 119.895V133.494C64.6839 133.98 64.8256 134.452 65.0699 134.873C65.3141 135.295 65.654 135.652 66.0621 135.918L68.8901 137.534L93.5664 123.333Z" fill="black"/>
<path d="M103.646 130.92V132.884C103.646 133.987 102.915 135.081 101.465 135.926L87.3246 144.083C85.7771 144.909 84.0488 145.337 82.2948 145.331V143.376C84.0488 143.382 85.7771 142.953 87.3246 142.127L101.465 133.962C102.915 133.126 103.646 132.023 103.646 130.92Z" fill="#72B2D5"/>
<path opacity="0.5" d="M103.646 130.92V132.884C103.646 133.987 102.915 135.081 101.465 135.926L87.3246 144.083C85.7771 144.909 84.0488 145.337 82.2948 145.331V143.376C84.0488 143.382 85.7771 142.953 87.3246 142.127L101.465 133.962C102.915 133.126 103.646 132.023 103.646 130.92Z" fill="black"/>
<path d="M25.048 150.393C25.5808 150.65 26.1665 150.779 26.7581 150.768C27.3496 150.758 27.9305 150.609 28.4537 150.332L123.798 95.2874C124.309 94.954 124.734 94.5048 125.04 93.9763C125.345 93.4477 125.522 92.8547 125.555 92.2453V15.1136C125.537 14.5207 125.379 13.9405 125.094 13.4202C124.809 12.9 124.405 12.4545 123.915 12.12C123.383 11.8624 122.797 11.734 122.206 11.7452C121.615 11.7564 121.035 11.907 120.513 12.1846L25.1692 67.2458C24.6598 67.5813 24.2368 68.0325 23.9349 68.5626C23.633 69.0927 23.4607 69.6866 23.432 70.296V147.416C23.45 148.004 23.6056 148.579 23.8862 149.096C24.1669 149.613 24.5648 150.057 25.048 150.393Z" fill="#72B2D5"/>
<path d="M28.4659 150.328L123.81 95.2834C124.322 94.9506 124.748 94.5016 125.053 93.9729C125.359 93.4443 125.535 92.8509 125.567 92.2412V15.1136C125.567 13.9945 124.779 13.538 123.81 14.0996L28.4659 69.1446C27.9544 69.4778 27.5287 69.9269 27.2234 70.4555C26.918 70.984 26.7416 71.5771 26.7085 72.1867V149.314C26.7085 150.433 27.4963 150.89 28.4659 150.328Z" fill="#72B2D5"/>
<path opacity="0.5" d="M28.4659 150.328L123.81 95.2834C124.322 94.9506 124.748 94.5016 125.053 93.9729C125.359 93.4443 125.535 92.8509 125.567 92.2412V15.1136C125.567 13.9945 124.779 13.538 123.81 14.0996L28.4659 69.1446C27.9544 69.4778 27.5287 69.9269 27.2234 70.4555C26.918 70.984 26.7416 71.5771 26.7085 72.1867V149.314C26.7085 150.433 27.4963 150.89 28.4659 150.328Z" fill="black"/>
<path d="M28.2073 152.332C27.7073 152.55 27.166 152.658 26.6206 152.647C26.0751 152.635 25.5386 152.506 25.048 152.268C24.5637 151.931 24.1651 151.486 23.8844 150.967C23.6037 150.449 23.4488 149.871 23.432 149.282V142.26L26.7246 144.167V151.189C26.7044 152.211 27.3548 152.676 28.2073 152.332Z" fill="#72B2D5"/>
<path opacity="0.5" d="M28.2073 152.332C27.7073 152.55 27.166 152.658 26.6206 152.647C26.0751 152.635 25.5386 152.506 25.048 152.268C24.5637 151.931 24.1651 151.486 23.8844 150.967C23.6037 150.449 23.4488 149.871 23.432 149.282V142.26L26.7246 144.167V151.189C26.7044 152.211 27.3548 152.676 28.2073 152.332Z" fill="black"/>
<path d="M26.7044 144.167V151.189C26.7044 152.308 27.5124 152.76 28.4618 152.203L123.806 97.1579C124.315 96.8261 124.739 96.3794 125.044 95.8539C125.35 95.3284 125.527 94.7386 125.563 94.132V87.0781L26.7044 144.167Z" fill="#72B2D5"/>
<path opacity="0.3" d="M26.7085 144.151V151.189C26.7085 152.308 27.5165 152.76 28.4659 152.203L123.81 97.1579C124.318 96.8256 124.742 96.3788 125.046 95.8533C125.351 95.3278 125.528 94.7383 125.563 94.132V87.0781L26.7085 144.151Z" fill="black"/>
<path d="M30.0011 135.34V73.2815C30.0199 72.9159 30.1249 72.5599 30.3074 72.2426C30.4899 71.9252 30.7449 71.6555 31.0515 71.4554L121.2 19.392C121.782 19.0566 122.254 19.3273 122.254 19.998V82.0887C122.235 82.4546 122.129 82.8107 121.946 83.1281C121.763 83.4454 121.507 83.7149 121.2 83.9148L31.0555 135.966C30.4738 136.301 30.0011 136.027 30.0011 135.34Z" fill="#72B2D5"/>
<path d="M30.0011 135.34V73.2815C30.0199 72.9159 30.1249 72.5599 30.3074 72.2426C30.4899 71.9252 30.7449 71.6555 31.0515 71.4554L121.2 19.392C121.782 19.0566 122.254 19.3273 122.254 19.998V82.0887C122.235 82.4546 122.129 82.8107 121.946 83.1281C121.763 83.4454 121.507 83.7149 121.2 83.9148L31.0555 135.966C30.4738 136.301 30.0011 136.027 30.0011 135.34Z" fill="#263238"/>
<path d="M76.1338 117.859C75.6539 118.171 75.2545 118.592 74.9681 119.088C74.6817 119.583 74.5163 120.14 74.4855 120.711C74.4855 121.762 75.2248 122.19 76.1338 121.665C76.6142 121.352 77.0139 120.93 77.3004 120.434C77.5869 119.938 77.7519 119.381 77.7821 118.808C77.7821 117.758 77.0428 117.334 76.1338 117.859Z" fill="#72B2D5"/>
<path opacity="0.7" d="M27.2256 70.4495C26.9125 70.9758 26.7335 71.571 26.7044 72.1827V144.167L23.432 142.26V70.296C23.4532 69.6823 23.6312 69.0842 23.9491 68.5588L27.2256 70.4495Z" fill="black"/>
<path opacity="0.3" d="M125.547 14.8227C125.422 13.9178 124.691 13.6107 123.806 14.0996L28.4618 69.1446C27.9448 69.4679 27.5182 69.9168 27.2215 70.4495L23.9249 68.5466C24.2235 68.0141 24.6514 67.5653 25.1692 67.2417L120.513 12.2008C121.036 11.9231 121.617 11.7725 122.208 11.7613C122.8 11.7501 123.386 11.8785 123.919 12.1361C124.367 12.4413 124.744 12.8391 125.025 13.3026C125.306 13.7661 125.484 14.2845 125.547 14.8227Z" fill="black"/>
<path d="M130.69 24.3168C130.549 24.2457 130.39 24.2146 130.232 24.2267C130.074 24.2388 129.922 24.2937 129.793 24.3855L39.8305 76.356C39.4756 76.5909 39.1809 76.906 38.9703 77.2758C38.7598 77.6457 38.6392 78.06 38.6185 78.4851V140.164C38.6059 140.372 38.6473 140.58 38.7386 140.768C38.8299 140.955 38.9681 141.116 39.1397 141.234C39.3377 141.343 40.3961 141.958 40.7113 142.127C40.8228 142.184 40.9473 142.21 41.0722 142.203C41.1972 142.196 41.318 142.156 41.4223 142.087L131.365 90.1163C131.72 89.8814 132.014 89.5663 132.225 89.1965C132.436 88.8266 132.556 88.4123 132.577 87.9872V25.9894C132.595 25.8327 132.569 25.6741 132.502 25.5314C132.435 25.3886 132.329 25.2674 132.197 25.1814C131.995 25.048 130.916 24.4501 130.69 24.3168Z" fill="#72B2D5"/>
<path d="M41.4019 77.2286L131.369 25.2783C132.047 24.8743 132.581 25.2056 132.581 25.9893V87.9872C132.56 88.4123 132.439 88.8265 132.229 89.1964C132.018 89.5663 131.724 89.8814 131.369 90.1162L41.4019 142.087C40.7232 142.491 40.1899 141.84 40.1899 141.057V79.3577C40.2112 78.9327 40.332 78.5187 40.5425 78.1489C40.753 77.7791 41.0474 77.4639 41.4019 77.2286Z" fill="#FAFAFA"/>
<path d="M131.918 25.5126C132.156 25.5126 132.193 25.8115 132.193 25.9893V87.9871C132.171 88.3431 132.067 88.6891 131.888 88.9977C131.709 89.3062 131.461 89.5689 131.163 89.7647L41.208 141.735C41.1476 141.774 41.0779 141.797 41.006 141.8C40.7797 141.8 40.602 141.452 40.602 141.057V79.3577C40.6215 79.0018 40.7227 78.6552 40.8979 78.3449C41.0731 78.0345 41.3174 77.7686 41.612 77.568L131.571 25.6257C131.675 25.5585 131.794 25.5196 131.918 25.5126ZM131.918 25.1086C131.723 25.1169 131.534 25.1753 131.369 25.2783L41.4019 77.2286C41.0474 77.4639 40.753 77.7791 40.5425 78.1489C40.332 78.5187 40.2112 78.9327 40.1899 79.3577V141.057C40.1899 141.679 40.5374 142.204 40.9979 142.204C41.1406 142.201 41.2799 142.161 41.4019 142.087L131.365 90.1162C131.72 89.8814 132.014 89.5663 132.225 89.1964C132.435 88.8265 132.556 88.4122 132.577 87.9871V25.9893C132.577 25.4318 132.302 25.1086 131.898 25.1086H131.918Z" fill="#E0E0E0"/>
<path d="M39.1153 141.234C39.2486 141.303 40.2061 141.848 40.6262 142.091C40.4754 141.966 40.3559 141.807 40.2773 141.627C40.1987 141.448 40.1633 141.252 40.1737 141.057V83.3856L38.5981 82.4645V140.164C38.5851 140.372 38.6258 140.579 38.7164 140.767C38.807 140.954 38.9444 141.115 39.1153 141.234Z" fill="#F0F0F0"/>
<path d="M132.597 25.9772C132.597 25.2015 132.043 24.8864 131.385 25.2783L41.4019 77.2286C41.0474 77.4639 40.753 77.7792 40.5425 78.1489C40.332 78.5187 40.2112 78.9328 40.1899 79.3577V83.3977L132.597 30.0172V25.9772Z" fill="#72B2D5"/>
<g opacity="0.4">
<path opacity="0.4" d="M131.369 25.2783L41.4019 77.2246C41.0408 77.4523 40.7434 77.7678 40.5373 78.1417L38.9738 77.2327C39.1795 76.8719 39.4744 76.57 39.8303 76.356L129.793 24.3854C129.922 24.293 130.073 24.2374 130.231 24.2246C130.389 24.2118 130.548 24.2422 130.69 24.3127C130.908 24.4501 131.93 25.0278 132.193 25.1692C132.057 25.1188 131.911 25.1024 131.767 25.1214C131.624 25.1405 131.487 25.1943 131.369 25.2783Z" fill="white"/>
</g>
<path opacity="0.15" d="M38.5981 82.4685V78.4649C38.6147 78.0286 38.7442 77.604 38.9739 77.2327L40.5414 78.1377C40.315 78.5026 40.1882 78.9205 40.1737 79.3497V83.3897L38.5981 82.4685Z" fill="black"/>
<path d="M113.625 72.4857L59.7435 103.594C59.4815 103.764 59.2633 103.993 59.1068 104.263C58.9502 104.534 58.8597 104.837 58.8426 105.149V120.598C58.8597 120.91 58.9502 121.213 59.1068 121.484C59.2633 121.754 59.4815 121.983 59.7435 122.153L61.3151 123.058C61.5944 123.2 61.903 123.273 62.216 123.273C62.529 123.273 62.8376 123.2 63.1169 123.058L116.99 91.9504C117.252 91.7795 117.471 91.5493 117.627 91.2783C117.784 91.0074 117.874 90.7034 117.891 90.391V74.938C117.874 74.6261 117.784 74.3226 117.627 74.0524C117.471 73.7821 117.252 73.5526 116.99 73.3826L115.415 72.4776C115.137 72.3386 114.83 72.2669 114.519 72.2683C114.208 72.2697 113.902 72.3442 113.625 72.4857Z" fill="#72B2D5"/>
<path opacity="0.5" d="M117.891 74.8006C117.827 74.336 117.451 74.1663 116.998 74.4289L63.1169 105.537C62.8512 105.702 62.6327 105.933 62.4826 106.208L59.1092 104.26C59.2604 103.99 59.4771 103.762 59.7395 103.598L113.625 72.4897C113.903 72.3481 114.211 72.2744 114.524 72.2744C114.836 72.2744 115.144 72.3481 115.423 72.4897L116.998 73.3947C117.239 73.5521 117.442 73.7589 117.596 74.0013C117.75 74.2438 117.851 74.5162 117.891 74.8006Z" fill="white"/>
<path d="M62.9634 123.135C62.6996 123.239 62.4168 123.286 62.1335 123.274C61.8502 123.261 61.5727 123.189 61.3191 123.062L59.7435 122.157C59.4819 121.987 59.2641 121.757 59.1076 121.487C58.9511 121.217 58.8603 120.914 58.8426 120.602V105.153C58.8547 104.838 58.9465 104.531 59.1092 104.26L62.4826 106.208C62.3187 106.474 62.2268 106.779 62.216 107.092V122.545C62.216 123.058 62.5392 123.297 62.9634 123.135Z" fill="#263238"/>
<path d="M63.1169 105.537L116.998 74.4289C117.495 74.1421 117.899 74.3724 117.899 74.946V90.399C117.882 90.7115 117.792 91.0155 117.635 91.2864C117.479 91.5573 117.26 91.7876 116.998 91.9585L63.125 123.066C62.6281 123.353 62.2241 123.119 62.2241 122.545V107.096C62.2403 106.785 62.3295 106.481 62.4846 106.21C62.6397 105.939 62.8563 105.709 63.1169 105.537Z" fill="#72B2D5"/>
<path d="M99.3395 80.7354L59.7475 103.598C59.4852 103.762 59.2685 103.99 59.1173 104.26L62.4907 106.208C62.6408 105.933 62.8593 105.702 63.125 105.537L102.717 82.6786L99.3395 80.7354Z" fill="#455A64"/>
<path d="M102.709 82.6786L63.1169 105.537C62.8548 105.708 62.6367 105.938 62.4801 106.209C62.3236 106.48 62.2331 106.784 62.216 107.096V122.541C62.216 123.115 62.62 123.349 63.1169 123.062L102.709 100.204V82.6786Z" fill="#37474F"/>
<path d="M72.2473 103.654L92.6775 91.8615C93.5219 91.3727 94.2087 91.7201 94.2087 92.6372C94.1709 93.1523 94.0122 93.6512 93.7455 94.0934C93.4788 94.5356 93.1115 94.9087 92.6735 95.1824L72.2473 106.979C71.4029 107.468 70.7121 107.121 70.7121 106.204C70.7502 105.688 70.909 105.189 71.1757 104.746C71.4423 104.303 71.8094 103.929 72.2473 103.654Z" fill="#72B2D5"/>
<path d="M76.4328 107.561C76.4365 107.557 76.4412 107.553 76.4464 107.551C76.4517 107.548 76.4573 107.547 76.4631 107.547C76.4688 107.547 76.4745 107.548 76.4797 107.551C76.4849 107.553 76.4896 107.557 76.4934 107.561C76.5114 107.588 76.52 107.621 76.5176 107.654V109.953C76.5179 110.175 76.4989 110.396 76.461 110.615C76.4277 110.815 76.3707 111.01 76.2914 111.197C76.2189 111.368 76.1238 111.528 76.0086 111.674C75.8949 111.809 75.7581 111.922 75.6046 112.009C75.4843 112.087 75.3441 112.129 75.2006 112.13C75.1457 112.126 75.0924 112.11 75.0437 112.085C74.9951 112.059 74.9522 112.024 74.9178 111.981C74.8291 111.862 74.7709 111.723 74.7481 111.577C74.7094 111.381 74.6918 111.182 74.6956 110.983V108.68C74.6954 108.64 74.7037 108.6 74.7198 108.563C74.7297 108.53 74.7512 108.501 74.7804 108.482L75.0349 108.333C75.0431 108.325 75.054 108.321 75.0652 108.321C75.0765 108.321 75.0873 108.325 75.0955 108.333C75.1142 108.36 75.1228 108.393 75.1198 108.426V110.696C75.1167 110.821 75.1289 110.946 75.1561 111.068C75.1673 111.146 75.201 111.219 75.2531 111.278C75.2713 111.299 75.2942 111.317 75.3202 111.328C75.3461 111.339 75.3743 111.344 75.4026 111.342C75.4717 111.338 75.5384 111.316 75.5965 111.278C75.6683 111.235 75.7337 111.182 75.7904 111.12C75.8535 111.048 75.9052 110.966 75.9439 110.878C75.9895 110.774 76.0234 110.666 76.0449 110.555C76.0685 110.421 76.0793 110.286 76.0772 110.151V107.876C76.0785 107.835 76.0881 107.796 76.1055 107.759C76.1154 107.726 76.1369 107.697 76.1661 107.678L76.4328 107.561Z" fill="#FAFAFA"/>
<path d="M78.0164 109.734C78.0186 109.705 78.0115 109.675 77.9962 109.65C77.9867 109.639 77.9747 109.631 77.9613 109.626C77.948 109.621 77.9336 109.62 77.9195 109.621C77.8699 109.615 77.8196 109.615 77.77 109.621L77.5357 109.666C77.4601 109.685 77.381 109.685 77.3054 109.666C77.2461 109.647 77.1949 109.608 77.16 109.557C77.1204 109.491 77.0943 109.418 77.0832 109.343C77.0438 109.126 77.0438 108.904 77.0832 108.688C77.1135 108.564 77.1569 108.444 77.2125 108.329C77.2678 108.214 77.3356 108.105 77.4145 108.005C77.4909 107.91 77.584 107.829 77.6892 107.767C77.7742 107.715 77.8692 107.682 77.968 107.67C78.0396 107.663 78.1118 107.678 78.174 107.714C78.2333 107.751 78.2799 107.804 78.3073 107.868C78.3399 107.943 78.3577 108.024 78.3599 108.106C78.3641 108.147 78.3556 108.188 78.3356 108.224C78.3257 108.257 78.3042 108.285 78.275 108.304L78.0326 108.446C78.0216 108.452 78.009 108.455 77.9962 108.455C77.9835 108.455 77.9709 108.452 77.9599 108.446L77.9074 108.405C77.8865 108.389 77.8612 108.379 77.8346 108.377C77.7827 108.383 77.7329 108.401 77.6892 108.43C77.6258 108.468 77.5697 108.517 77.5236 108.575C77.4747 108.639 77.449 108.717 77.4508 108.797C77.4451 108.828 77.4451 108.859 77.4508 108.89C77.4586 108.902 77.4688 108.911 77.4806 108.918C77.4925 108.925 77.5058 108.929 77.5195 108.931C77.5637 108.938 77.6087 108.938 77.6528 108.931L77.8791 108.89C78.069 108.854 78.1983 108.89 78.2831 108.995C78.3722 109.145 78.4131 109.318 78.4003 109.492C78.3992 109.612 78.3829 109.732 78.3518 109.848C78.3198 109.974 78.2738 110.096 78.2144 110.211C78.1551 110.331 78.0804 110.442 77.9922 110.542C77.9085 110.641 77.8088 110.724 77.6973 110.789C77.6085 110.846 77.5073 110.88 77.4024 110.89C77.3264 110.893 77.2515 110.871 77.1882 110.829C77.1259 110.787 77.078 110.726 77.0509 110.656C77.0182 110.579 77.0017 110.496 77.0024 110.413C76.9986 110.371 77.007 110.329 77.0266 110.292C77.0365 110.259 77.058 110.23 77.0872 110.211L77.3296 110.07C77.362 110.07 77.3862 110.05 77.4024 110.07L77.4549 110.126C77.4656 110.138 77.4787 110.148 77.4932 110.155C77.5078 110.162 77.5236 110.166 77.5397 110.167C77.5966 110.167 77.652 110.149 77.6973 110.114C77.7702 110.073 77.8358 110.02 77.8912 109.957C77.9187 109.923 77.9418 109.887 77.9599 109.848C77.9884 109.816 78.0079 109.777 78.0164 109.734Z" fill="#FAFAFA"/>
<path d="M78.8405 108.64C78.8398 108.43 78.8574 108.22 78.8931 108.013C78.9268 107.819 78.9796 107.628 79.0506 107.444C79.11 107.279 79.1916 107.122 79.293 106.979C79.3777 106.856 79.488 106.753 79.6162 106.676C79.7099 106.613 79.8241 106.589 79.9354 106.608C80.0341 106.63 80.1206 106.69 80.1778 106.773C80.2538 106.883 80.3074 107.006 80.3354 107.137C80.3741 107.306 80.3931 107.48 80.3919 107.654V107.904C80.3932 107.947 80.3834 107.988 80.3636 108.026C80.3537 108.059 80.3322 108.088 80.303 108.106L79.2526 108.716C79.2501 108.788 79.2597 108.859 79.2809 108.926C79.2965 108.972 79.3245 109.013 79.3617 109.044C79.3949 109.07 79.4366 109.083 79.4789 109.08C79.5277 109.074 79.5746 109.058 79.6162 109.032C79.6773 108.998 79.7321 108.955 79.7778 108.902C79.8192 108.856 79.8545 108.804 79.8829 108.749C79.9001 108.717 79.919 108.686 79.9394 108.656C79.9568 108.635 79.9772 108.618 80 108.603L80.2505 108.458C80.2591 108.451 80.2698 108.447 80.2808 108.447C80.2918 108.447 80.3025 108.451 80.3111 108.458C80.3217 108.471 80.3294 108.486 80.3336 108.502C80.3378 108.518 80.3384 108.534 80.3354 108.551C80.3309 108.63 80.3146 108.707 80.2869 108.781C80.252 108.893 80.206 109.001 80.1495 109.104C80.0863 109.223 80.0104 109.334 79.9233 109.436C79.8363 109.54 79.7326 109.628 79.6162 109.698C79.5208 109.761 79.4064 109.788 79.293 109.775C79.1937 109.751 79.1071 109.69 79.0506 109.605C78.9711 109.483 78.9175 109.345 78.8931 109.201C78.8563 109.016 78.8387 108.828 78.8405 108.64ZM79.6162 107.351C79.5541 107.384 79.5003 107.431 79.4587 107.488C79.4138 107.545 79.3771 107.607 79.3496 107.674C79.3213 107.741 79.2983 107.81 79.2809 107.88C79.2667 107.944 79.2572 108.009 79.2526 108.074L79.9637 107.67C79.9595 107.614 79.9514 107.559 79.9394 107.504C79.9332 107.456 79.9137 107.409 79.8829 107.371C79.8708 107.354 79.8552 107.339 79.8371 107.328C79.819 107.317 79.7989 107.309 79.7778 107.306C79.7204 107.302 79.6631 107.317 79.6162 107.351Z" fill="#FAFAFA"/>
<path d="M81.6605 106.224C81.5381 106.294 81.4417 106.401 81.3858 106.531C81.3229 106.701 81.2941 106.882 81.3009 107.064V108.522C81.3015 108.564 81.2933 108.605 81.2767 108.644C81.2668 108.677 81.2453 108.706 81.2161 108.724L80.9777 108.862C80.974 108.866 80.9693 108.87 80.9641 108.872C80.9588 108.874 80.9532 108.876 80.9474 108.876C80.9417 108.876 80.936 108.874 80.9308 108.872C80.9256 108.87 80.9209 108.866 80.9171 108.862C80.8991 108.834 80.8905 108.802 80.8929 108.769V106.155C80.8931 106.113 80.9013 106.072 80.9171 106.034C80.9284 106.001 80.9496 105.973 80.9777 105.953L81.2161 105.816C81.2243 105.808 81.2352 105.804 81.2464 105.804C81.2576 105.804 81.2685 105.808 81.2767 105.816C81.2954 105.841 81.3041 105.873 81.3009 105.905V106.034C81.3491 105.925 81.4087 105.823 81.4787 105.727C81.5426 105.638 81.6254 105.565 81.7211 105.513L81.8665 105.428C81.8741 105.42 81.8843 105.416 81.8948 105.416C81.9054 105.416 81.9156 105.42 81.9231 105.428C81.9426 105.455 81.9526 105.487 81.9514 105.521V105.888C81.9507 105.93 81.941 105.972 81.9231 106.01C81.9129 106.042 81.8932 106.07 81.8665 106.09L81.6605 106.224Z" fill="#FAFAFA"/>
<path d="M84.6744 106.03C84.6782 106.026 84.6828 106.022 84.688 106.02C84.6933 106.017 84.6989 106.016 84.7047 106.016C84.7104 106.016 84.7161 106.017 84.7213 106.02C84.7265 106.022 84.7312 106.026 84.735 106.03C84.7531 106.057 84.7616 106.09 84.7592 106.123V106.527C84.759 106.568 84.7508 106.609 84.735 106.648C84.7211 106.678 84.7003 106.704 84.6744 106.725L83.2927 107.533C83.2845 107.54 83.2736 107.545 83.2624 107.545C83.2511 107.545 83.2403 107.54 83.2321 107.533C83.214 107.507 83.2055 107.475 83.2079 107.444V103.808C83.2081 103.766 83.2163 103.725 83.2321 103.687C83.2434 103.655 83.2647 103.628 83.2927 103.61L83.5472 103.46C83.5554 103.453 83.5663 103.448 83.5775 103.448C83.5888 103.448 83.5996 103.453 83.6078 103.46C83.6259 103.486 83.6344 103.518 83.632 103.549V106.624L84.6744 106.03Z" fill="#FAFAFA"/>
<path d="M85.9146 103.04C86.0056 102.977 86.1154 102.947 86.2257 102.955C86.3203 102.963 86.4085 103.006 86.4721 103.077C86.5474 103.163 86.6026 103.265 86.6337 103.376C86.6769 103.519 86.7013 103.667 86.7064 103.816C86.7064 103.848 86.7064 103.893 86.7064 103.945V104.256C86.7064 104.305 86.7064 104.349 86.7064 104.386C86.6985 104.561 86.6741 104.736 86.6337 104.907C86.5964 105.073 86.5422 105.236 86.4721 105.392C86.4081 105.536 86.3252 105.672 86.2257 105.796C86.1405 105.907 86.0349 106.002 85.9146 106.074C85.8211 106.135 85.7108 106.165 85.5995 106.159C85.5062 106.151 85.4195 106.108 85.3571 106.038C85.2796 105.955 85.2241 105.853 85.1955 105.743C85.1523 105.6 85.1279 105.452 85.1228 105.303C85.1228 105.27 85.1228 105.23 85.1228 105.177V104.866C85.1228 104.814 85.1228 104.769 85.1228 104.737C85.1275 104.56 85.1505 104.384 85.1915 104.212C85.2308 104.044 85.2862 103.88 85.3571 103.723C85.4213 103.579 85.5027 103.443 85.5995 103.319C85.6851 103.206 85.7922 103.111 85.9146 103.04ZM86.2944 104.083C86.2942 103.993 86.2792 103.904 86.2499 103.82C86.2349 103.768 86.2038 103.723 86.1611 103.691C86.1266 103.668 86.0851 103.658 86.0439 103.662C85.9977 103.671 85.9538 103.689 85.9146 103.715C85.8671 103.741 85.8236 103.774 85.7853 103.812C85.739 103.86 85.6996 103.914 85.6682 103.973C85.6276 104.047 85.5977 104.126 85.5793 104.208C85.5528 104.311 85.5365 104.417 85.5308 104.523C85.5308 104.555 85.5308 104.592 85.5308 104.636V104.923C85.5308 104.967 85.5308 105.004 85.5308 105.028C85.5346 105.117 85.5509 105.206 85.5793 105.291C85.594 105.342 85.6253 105.388 85.6682 105.42C85.685 105.432 85.7041 105.44 85.7242 105.444C85.7444 105.448 85.7652 105.448 85.7853 105.444C85.8311 105.436 85.875 105.42 85.9146 105.396C85.9614 105.369 86.0048 105.336 86.0439 105.299C86.089 105.249 86.1283 105.195 86.1611 105.137C86.1999 105.063 86.2298 104.984 86.2499 104.903C86.2763 104.8 86.2912 104.694 86.2944 104.588C86.2968 104.55 86.2968 104.512 86.2944 104.474V104.192C86.2967 104.155 86.2967 104.119 86.2944 104.083Z" fill="#FAFAFA"/>
<path d="M87.9427 105.404C87.9944 105.372 88.0408 105.332 88.0801 105.286C88.1287 105.229 88.1707 105.167 88.2053 105.101C88.2455 105.019 88.2766 104.934 88.2982 104.846C88.3231 104.747 88.3353 104.645 88.3346 104.543V104.337C88.3346 104.377 88.2942 104.426 88.2659 104.482C88.2382 104.542 88.2058 104.598 88.169 104.652C88.1268 104.709 88.0809 104.763 88.0316 104.814C87.9809 104.867 87.9223 104.912 87.8579 104.947C87.8164 104.975 87.7695 104.995 87.7202 105.005C87.6709 105.014 87.6202 105.014 87.571 105.004C87.4812 104.976 87.4041 104.917 87.3529 104.838C87.287 104.734 87.2392 104.619 87.2115 104.499C87.177 104.346 87.1581 104.19 87.1549 104.034C87.1549 103.982 87.1549 103.917 87.1549 103.84C87.1549 103.763 87.1549 103.699 87.1549 103.642C87.16 103.465 87.1789 103.288 87.2115 103.113C87.2446 102.941 87.2919 102.772 87.3529 102.608C87.41 102.465 87.4832 102.33 87.571 102.204C87.6455 102.093 87.7434 101.999 87.8579 101.929C87.9116 101.897 87.9703 101.874 88.0316 101.861C88.077 101.852 88.1236 101.852 88.169 101.861C88.2048 101.871 88.2379 101.889 88.2659 101.913C88.2917 101.933 88.3148 101.956 88.3346 101.982V101.852C88.3348 101.811 88.343 101.77 88.3588 101.731C88.3701 101.7 88.3914 101.673 88.4194 101.654L88.6578 101.513C88.666 101.505 88.6768 101.501 88.6881 101.501C88.6993 101.501 88.7102 101.505 88.7184 101.513C88.7379 101.54 88.7478 101.573 88.7467 101.606V104.232C88.7576 104.625 88.6846 105.016 88.5326 105.379C88.4133 105.665 88.2068 105.905 87.9427 106.066C87.8526 106.122 87.7497 106.154 87.6438 106.159C87.5599 106.164 87.4766 106.143 87.4054 106.098C87.3371 106.047 87.2817 105.981 87.2438 105.905C87.2044 105.812 87.1825 105.714 87.1791 105.614C87.1754 105.572 87.1838 105.53 87.2034 105.492C87.2133 105.459 87.2348 105.431 87.264 105.412L87.4781 105.29C87.483 105.285 87.489 105.281 87.4956 105.278C87.5022 105.275 87.5093 105.274 87.5165 105.274C87.5237 105.274 87.5308 105.275 87.5374 105.278C87.544 105.281 87.55 105.285 87.5549 105.29C87.5748 105.311 87.5924 105.334 87.6074 105.359C87.632 105.402 87.6726 105.434 87.7205 105.448C87.769 105.484 87.8417 105.444 87.9427 105.404ZM87.563 103.444C87.563 103.552 87.563 103.657 87.563 103.759C87.5514 103.921 87.5972 104.081 87.6922 104.212C87.7282 104.243 87.7741 104.26 87.8215 104.26C87.869 104.26 87.9148 104.243 87.9508 104.212C88.068 104.136 88.1596 104.026 88.2134 103.897C88.287 103.728 88.3281 103.547 88.3346 103.363C88.3346 103.303 88.3346 103.23 88.3346 103.145C88.3346 103.06 88.3346 102.988 88.3346 102.935C88.3428 102.79 88.2999 102.647 88.2134 102.531C88.1776 102.498 88.1307 102.48 88.0821 102.48C88.0334 102.48 87.9866 102.498 87.9508 102.531C87.8358 102.607 87.7459 102.715 87.6922 102.842C87.6092 103.032 87.5653 103.237 87.563 103.444Z" fill="#FAFAFA"/>
<path d="M89.688 99.8567C89.696 99.8501 89.706 99.8465 89.7163 99.8465C89.7266 99.8465 89.7366 99.8501 89.7446 99.8567C89.7657 99.8828 89.7759 99.9161 89.7729 99.9496V100.39C89.7731 100.432 89.7634 100.474 89.7446 100.511C89.7332 100.542 89.7137 100.568 89.688 100.588L89.4173 100.745C89.4135 100.75 89.4089 100.753 89.4037 100.756C89.3984 100.758 89.3928 100.759 89.387 100.759C89.3813 100.759 89.3756 100.758 89.3704 100.756C89.3652 100.753 89.3605 100.75 89.3567 100.745C89.3462 100.733 89.3382 100.719 89.3334 100.704C89.3285 100.689 89.3268 100.673 89.3285 100.657V100.216C89.3282 100.174 89.3379 100.133 89.3567 100.095C89.368 100.064 89.3893 100.037 89.4173 100.018L89.688 99.8567ZM89.7567 103.65C89.7568 103.691 89.7486 103.73 89.7324 103.767C89.7196 103.799 89.6987 103.827 89.6719 103.848L89.4295 103.986C89.426 103.99 89.4217 103.993 89.4168 103.996C89.4119 103.998 89.4066 103.999 89.4012 103.999C89.3957 103.999 89.3904 103.998 89.3855 103.996C89.3806 103.993 89.3763 103.99 89.3729 103.986C89.3517 103.959 89.3416 103.926 89.3446 103.893V101.279C89.3443 101.237 89.354 101.195 89.3729 101.158C89.3843 101.126 89.4038 101.098 89.4295 101.077L89.6719 100.939C89.6801 100.932 89.6909 100.927 89.7022 100.927C89.7134 100.927 89.7242 100.932 89.7324 100.939C89.7505 100.965 89.7591 100.997 89.7567 101.028V103.65Z" fill="#FAFAFA"/>
<path d="M91.8817 102.418C91.8815 102.46 91.8733 102.501 91.8574 102.539C91.8462 102.571 91.8249 102.598 91.7969 102.616L91.5544 102.757C91.5469 102.765 91.5367 102.769 91.5262 102.769C91.5156 102.769 91.5054 102.765 91.4979 102.757C91.4767 102.731 91.4666 102.698 91.4696 102.664V101.242C91.482 101.075 91.4514 100.906 91.3807 100.754C91.3242 100.653 91.2353 100.636 91.1101 100.709C90.9851 100.793 90.8925 100.917 90.8474 101.061C90.78 101.251 90.7472 101.452 90.7505 101.654V103.081C90.7503 103.122 90.7421 103.163 90.7263 103.202C90.7164 103.235 90.6949 103.264 90.6657 103.283L90.4273 103.42C90.4235 103.424 90.4188 103.428 90.4136 103.43C90.4084 103.432 90.4027 103.434 90.397 103.434C90.3913 103.434 90.3856 103.432 90.3804 103.43C90.3751 103.428 90.3705 103.424 90.3667 103.42C90.348 103.394 90.3393 103.363 90.3424 103.331V100.717C90.3419 100.676 90.3501 100.634 90.3667 100.596C90.3766 100.563 90.3981 100.534 90.4273 100.515L90.6657 100.378C90.6694 100.374 90.6741 100.37 90.6793 100.368C90.6846 100.365 90.6902 100.364 90.6959 100.364C90.7017 100.364 90.7074 100.365 90.7126 100.368C90.7178 100.37 90.7225 100.374 90.7263 100.378C90.7443 100.405 90.7529 100.438 90.7505 100.471V100.596C90.8037 100.473 90.8686 100.355 90.9444 100.245C91.0109 100.143 91.101 100.058 91.207 99.9981C91.2989 99.9309 91.4133 99.9019 91.5262 99.9173C91.5709 99.9285 91.6127 99.9491 91.6489 99.9777C91.6851 100.006 91.7149 100.042 91.7363 100.083C91.7949 100.192 91.8332 100.311 91.8494 100.434C91.8709 100.595 91.8817 100.757 91.8817 100.919V102.418Z" fill="#FAFAFA"/>
<path d="M112.259 90.6576L108.337 92.92L108.947 87.4175C108.474 87.167 108.175 86.557 108.175 85.6803C108.175 84.1168 109.128 82.3029 110.3 81.6403C111.472 80.9778 112.421 81.6807 112.421 83.2563C112.397 84.1833 112.132 85.0882 111.653 85.8823L112.259 90.6576Z" fill="#455A64"/>
<path d="M112.263 90.6576L108.809 88.6659L108.337 92.924L112.263 90.6576Z" fill="#37474F"/>
<path d="M110.292 81.6282C109.438 82.2054 108.801 83.0514 108.482 84.032L111.645 85.8581C112.124 85.0639 112.389 84.1591 112.413 83.2321C112.421 81.6686 111.472 80.9535 110.292 81.6282Z" fill="#37474F"/>
<path d="M91.2232 63.3068C89.8779 62.5311 88.0235 62.6402 85.9712 63.8239C81.8747 66.1913 78.5538 71.9403 78.5538 76.6711C78.5538 79.0466 79.3941 80.7111 80.7435 81.4787L83.3573 82.9977C84.6986 83.7734 86.553 83.6603 88.6093 82.4766C92.7059 80.1132 96.0268 74.3602 96.0268 69.6294C96.0268 67.266 95.1945 65.5894 93.8533 64.8339" fill="#72B2D5"/>
<path d="M88.6053 65.347C84.5087 67.7144 81.1878 73.4674 81.1878 78.1942C81.1878 82.921 84.5087 84.844 88.6053 82.4766C92.7018 80.1092 96.0267 74.3602 96.0227 69.6294C96.0187 64.8986 92.6978 62.9836 88.6053 65.347Z" fill="#72B2D5"/>
<path d="M92.6978 75.8429V76.3843C91.7164 78.1361 90.3087 79.6118 88.6052 80.6748C87.0094 81.5918 85.5671 81.6928 84.5087 81.107V79.992C84.5628 78.8319 84.8941 77.7017 85.4747 76.6959C86.0552 75.6901 86.8683 74.8379 87.8457 74.2108L88.9244 73.5886C89.8778 73.0392 90.807 72.9664 91.5342 73.3906C92.2614 73.8148 92.6978 74.7077 92.6978 75.8429Z" fill="#72B2D5"/>
<path opacity="0.4" d="M91.2232 63.3068L93.8492 64.8339C92.5079 64.0542 90.6536 64.1633 88.5972 65.347C85.9146 66.8984 83.5634 69.9001 82.2625 73.1159L79.6324 71.5928C80.9374 68.3608 83.2684 65.3753 85.9672 63.8239C88.0276 62.6442 89.8819 62.5311 91.2232 63.3068Z" fill="white"/>
<path opacity="0.2" d="M83.2644 82.9371L80.7474 81.4787C79.3981 80.7111 78.5578 79.0547 78.5578 76.6711L81.1878 78.1982C81.204 80.501 81.9797 82.1413 83.2644 82.9371Z" fill="black"/>
<path opacity="0.1" d="M79.6405 71.5929L82.2705 73.1159C81.5966 74.7259 81.2347 76.4492 81.2039 78.1942L78.5739 76.6671C78.6063 74.9236 78.9682 73.2019 79.6405 71.5929Z" fill="black"/>
<path d="M87.668 73.3341C87.4173 73.3368 87.1705 73.2726 86.9529 73.1482C86.6906 72.9734 86.4804 72.7309 86.3446 72.4464C86.2088 72.162 86.1524 71.8461 86.1813 71.5322C86.2155 70.7962 86.4256 70.079 86.7939 69.4408C87.1622 68.8026 87.6781 68.2619 88.2982 67.8639C88.5473 67.665 88.8507 67.546 89.1686 67.5223C89.4864 67.4986 89.8041 67.5714 90.0799 67.7311C90.3558 67.8909 90.577 68.1301 90.7146 68.4176C90.8523 68.7051 90.9 69.0275 90.8515 69.3425C90.8166 70.0785 90.6062 70.7954 90.2379 71.4335C89.8697 72.0716 89.3542 72.6124 88.7345 73.0109C88.4139 73.211 88.0458 73.3226 87.668 73.3341Z" fill="white"/>
<path d="M91.5342 73.3866C90.807 72.9624 89.8778 73.0351 88.9244 73.5845L87.8457 74.2067C86.8677 74.8343 86.0544 75.687 85.4738 76.6936C84.8931 77.7002 84.5622 78.8312 84.5087 79.992V81.1111C85.5671 81.6969 87.0094 81.5959 88.6052 80.6788C90.3087 79.6158 91.7164 78.1401 92.6978 76.3883V75.847C92.6978 74.7077 92.2776 73.8148 91.5342 73.3866Z" fill="white"/>
<path d="M174.589 143.279C174.589 143.279 175.126 138.56 177.473 134.896C179.82 131.231 183.044 128.949 186.054 128.71C189.064 128.472 191.496 131.243 188.276 133.154C185.056 135.065 179.336 136.996 176.702 144.107L174.589 143.279Z" fill="#72B2D5"/>
<path opacity="0.1" d="M174.589 143.279C174.589 143.279 175.126 138.56 177.473 134.896C179.82 131.231 183.044 128.949 186.054 128.71C189.064 128.472 191.496 131.243 188.276 133.154C185.056 135.065 179.336 136.996 176.702 144.107L174.589 143.279Z" fill="black"/>
<path d="M175.473 142.05H175.441C175.401 142.034 175.37 142.003 175.353 141.964C175.337 141.924 175.336 141.88 175.352 141.84C178.528 134.023 184.571 130.755 187.327 130.124C187.347 130.12 187.369 130.119 187.39 130.122C187.411 130.126 187.431 130.134 187.449 130.145C187.467 130.156 187.482 130.171 187.495 130.188C187.507 130.205 187.516 130.225 187.521 130.246C187.525 130.266 187.526 130.288 187.523 130.309C187.519 130.33 187.511 130.35 187.5 130.368C187.489 130.386 187.474 130.401 187.457 130.414C187.44 130.426 187.42 130.435 187.399 130.439C184.701 131.062 178.774 134.269 175.651 141.966C175.636 141.998 175.609 142.024 175.577 142.039C175.545 142.055 175.508 142.059 175.473 142.05Z" fill="white"/>
<path d="M191.545 142.143C191.274 142.757 190.603 143.081 189.981 143.331C189.359 143.582 188.68 143.852 188.341 144.434C187.662 145.606 188.777 147.262 188.05 148.397C187.879 148.626 187.663 148.817 187.416 148.96C187.169 149.103 186.895 149.195 186.612 149.23C186.147 149.314 185.674 149.314 185.206 149.355C184.981 149.352 184.757 149.334 184.535 149.302C183.882 149.157 183.2 149.229 182.592 149.508C181.659 150.033 181.38 151.209 180.806 152.118C180.456 152.653 179.994 153.107 179.452 153.447C178.91 153.787 178.301 154.006 177.667 154.09C177.263 154.142 176.455 154.219 176.051 153.981C176.019 153.965 175.99 153.946 175.962 153.924C175.902 153.859 175.829 153.774 175.797 153.73C175.795 153.721 175.795 153.711 175.797 153.702C175.631 153.092 175.902 152.462 175.914 151.831V151.718C175.885 150.987 175.865 150.26 175.849 149.533C175.814 148.186 175.801 146.839 175.809 145.493C175.809 144.62 175.712 143.666 176.083 142.846C176.487 141.941 177.506 141.921 177.889 141.036C178.043 140.681 178.124 140.305 178.273 139.946C178.504 139.423 178.874 138.974 179.343 138.647C179.812 138.32 180.361 138.127 180.931 138.091C182.705 138.002 184.293 139.437 186.066 139.303C186.523 139.267 186.971 139.125 187.424 139.045C188.858 138.774 190.518 139.182 191.326 140.398C191.504 140.648 191.616 140.939 191.654 141.243C191.693 141.548 191.655 141.857 191.545 142.143Z" fill="#72B2D5"/>
<path d="M175.619 150.902C175.581 150.891 175.548 150.865 175.529 150.83C175.509 150.796 175.504 150.755 175.514 150.716C177.962 141.529 187.634 140.212 189.908 140.366C189.928 140.367 189.948 140.372 189.966 140.38C189.984 140.389 190 140.402 190.013 140.417C190.026 140.432 190.036 140.449 190.043 140.468C190.049 140.487 190.051 140.507 190.05 140.527C190.046 140.567 190.027 140.603 189.996 140.628C189.966 140.654 189.928 140.667 189.888 140.665C187.67 140.507 178.2 141.804 175.805 150.797C175.793 150.835 175.768 150.868 175.733 150.887C175.698 150.907 175.657 150.912 175.619 150.902Z" fill="white"/>
<path d="M186.377 146.248C186.347 146.244 186.318 146.23 186.297 146.208C185.402 145.433 184.348 144.865 183.209 144.544C182.07 144.224 180.874 144.158 179.707 144.353C179.668 144.357 179.629 144.346 179.597 144.322C179.566 144.298 179.544 144.263 179.538 144.224C179.532 144.184 179.541 144.144 179.565 144.112C179.588 144.079 179.623 144.057 179.663 144.05C180.88 143.848 182.127 143.917 183.314 144.253C184.502 144.589 185.6 145.183 186.531 145.993C186.545 146.007 186.556 146.024 186.564 146.042C186.572 146.061 186.576 146.081 186.576 146.101C186.576 146.12 186.572 146.14 186.564 146.159C186.556 146.177 186.545 146.194 186.531 146.208C186.513 146.229 186.488 146.245 186.46 146.252C186.433 146.259 186.404 146.258 186.377 146.248Z" fill="white"/>
<path d="M152.356 32.32L153.641 32.8129V29.9849C153.641 27.7386 155.431 27.2013 157.374 28.3244C159.321 29.4475 160.897 32.1745 160.897 34.4208V34.8248C161.168 34.742 161.454 34.7216 161.734 34.765C162.014 34.8083 162.28 34.9144 162.513 35.0753C163.251 35.5564 163.865 36.2049 164.305 36.9679C164.745 37.731 164.999 38.5871 165.046 39.4667V39.6526L166.84 40.6868C167.325 41.0036 167.729 41.4302 168.019 41.932C168.309 42.4338 168.476 42.9968 168.508 43.5754C168.508 44.642 167.761 45.0743 166.84 44.541L152.356 36.1741C151.871 35.8581 151.467 35.4317 151.178 34.9296C150.888 34.4276 150.722 33.8642 150.692 33.2855C150.692 32.223 151.431 31.7907 152.356 32.32Z" fill="#E6E6E6"/>
<path d="M169.563 30.0818L171.894 31.4271C171.881 31.3253 171.874 31.2228 171.874 31.1201V30.4454C171.874 29.2334 172.714 28.7567 173.756 29.3587C174.204 29.6329 174.587 30.0009 174.879 30.4373C175.049 28.9264 176.237 28.3648 177.675 29.193C178.497 29.7278 179.181 30.4487 179.673 31.2973C180.164 32.1459 180.449 33.0983 180.503 34.0774V35.0874C180.514 35.4909 180.432 35.8916 180.265 36.259L182.204 37.374C182.506 37.5745 182.757 37.843 182.937 38.158C183.116 38.473 183.22 38.8258 183.238 39.188C183.238 39.8546 182.77 40.1253 182.192 39.794L169.563 32.522C169.257 32.323 169.003 32.0545 168.822 31.7385C168.64 31.4226 168.535 31.0681 168.516 30.704C168.516 30.0212 168.985 29.7505 169.563 30.0818Z" fill="#E6E6E6"/>
<path d="M160.537 91.3969C158.841 94.2653 157.208 96.758 156.061 97.9538C153.884 98.9638 148.769 100.523 146.769 100.782C146.418 100.827 146.062 100.743 145.767 100.548C144.979 100.03 144.369 99.9456 143.541 99.6587C142.891 99.4365 142.616 99.1254 142.495 99.2547C142.37 99.4015 142.307 99.5913 142.32 99.7838C142.332 99.9763 142.42 100.156 142.563 100.285C142.874 100.58 143.219 100.838 143.59 101.053C142.703 101.273 141.777 101.289 140.883 101.101C139.15 100.644 138.334 101.477 139.505 103.359C139.909 104.03 141.574 105.109 144.919 104.818C146.112 104.753 147.301 104.619 148.478 104.414C151.686 103.727 155.253 103.064 157.447 102.394C158.263 102.073 158.993 101.567 159.58 100.915C163.268 96.7095 164.493 93.7118 166.109 90.9889L165.971 86.5449C163.353 86.456 161.955 88.9971 160.537 91.3969Z" fill="#FFA8A7"/>
<path d="M166.42 86.456C165.661 86.3493 164.887 86.4521 164.182 86.7533C163.477 87.0545 162.868 87.5426 162.42 88.1649C160.626 90.4637 157.451 95.9823 157.451 95.9823C157.451 95.9823 158.489 98.7497 161.293 99.2143L165.798 93.1301C165.798 93.1301 167.931 88.9042 166.42 86.456Z" fill="#455A64"/>
<path d="M176.16 148.486H173.223V153.722H176.16V148.486Z" fill="#FFA8A7"/>
<path d="M165.979 148.207L163.046 148.312L162.897 142.77L165.979 142.665V148.207Z" fill="#FFA8A7"/>
<path d="M176.572 103.161C176.572 106.078 176.144 129.579 176.144 129.579C176.209 130.419 176.952 131.971 176.802 135.199C176.58 139.582 176.285 151.104 176.285 151.104C175.781 151.362 175.225 151.502 174.659 151.513C174.092 151.524 173.531 151.407 173.017 151.169C173.017 151.169 170.633 135.009 170.108 130.682C169.648 126.888 168.468 114.332 168.468 114.332L166.88 129.175C167.217 130.768 167.339 132.398 167.244 134.023C167.106 136.043 166.161 146.498 166.161 146.498C165.654 146.798 165.085 146.978 164.498 147.025C163.91 147.072 163.32 146.984 162.772 146.769C162.772 146.769 161.099 131.013 161.067 129.163C161.026 127.062 162.044 103.137 162.044 103.137L176.572 103.161Z" fill="#37474F"/>
<path d="M173.223 152.211V151.775C172.94 151.9 172.29 154.494 171.122 155.601C170.197 156.481 168.937 157.495 168.613 158.477C168.29 159.459 170.371 160.061 171.239 159.903C172.241 159.717 173.987 158.978 174.423 158.287C174.859 157.596 175.065 156.594 175.421 156.093C175.776 155.593 176.596 155.035 176.786 154.453C176.846 153.909 176.789 153.358 176.621 152.837C176.483 152.296 176.338 151.702 176.16 151.755V152.086C175.746 152.426 175.225 152.609 174.69 152.603C174.261 152.639 173.219 152.55 173.223 152.211Z" fill="#263238"/>
<path d="M163.014 147.367C162.86 147.367 162.735 147.597 162.4 147.977C161.901 148.502 161.318 148.939 160.675 149.27C159.576 149.844 157.443 150.724 156.469 151.181C155.863 151.464 155.891 152.223 156.518 152.655C157.144 153.088 158.651 153.399 160.461 152.979C161.446 152.748 162.731 151.799 163.547 151.851C164.363 151.904 165.878 151.888 166.48 151.447C167.082 151.007 166.84 150.094 166.67 149.306C166.484 148.442 166.266 147.096 165.979 147.157V147.46C165.628 148.018 163.806 148.244 163.03 147.836L163.014 147.367Z" fill="#263238"/>
<path d="M168.468 114.332C166.94 113.832 165.543 112.997 164.38 111.888C164.38 111.888 165.188 113.427 167.515 114.861L167.014 128.116L168.468 114.332Z" fill="#263238"/>
<path d="M174.932 86.8842C174.932 86.8842 177.356 87.4417 177.182 91.8211L176.677 98.7901V109.254C174.52 111.702 164.961 111.524 161.669 109.06C161.669 109.06 162.04 96.6772 162.263 91.91C162.42 88.5245 163.2 86.8196 166.529 86.4479L170.621 86.6257L174.932 86.8842Z" fill="#72B2D5"/>
<path d="M171.845 77.7861C171.859 78.3724 171.757 78.9557 171.545 79.5023C171.332 80.0489 171.013 80.548 170.607 80.9709C170.201 81.3938 169.715 81.732 169.177 81.9662C168.639 82.2003 168.061 82.3258 167.474 82.3352C165.05 82.3352 163.628 80.2425 163.103 77.7861C162.133 73.2896 165.058 73.2331 167.474 73.2331C168.658 73.2575 169.783 73.7508 170.602 74.6046C171.422 75.4584 171.869 76.6028 171.845 77.7861Z" fill="#263238"/>
<path d="M174.076 79.6243C174.076 79.6243 173.405 82.9048 173.134 83.4462C172.964 83.772 172.675 84.0195 172.326 84.137L172.375 81.8302L174.076 79.6243Z" fill="#263238"/>
<path d="M173.231 74.9258C173.231 74.9258 173.712 74.8046 174.225 75.6046C174.661 76.2873 174.762 77.8225 174.076 79.6445L172.811 79.7981L173.231 74.9258Z" fill="#263238"/>
<path d="M173.696 75.5924L175.247 75.6207C175.258 75.5205 175.247 75.4191 175.217 75.323C175.187 75.2268 175.137 75.138 175.07 75.0622C175.004 74.9863 174.922 74.9249 174.831 74.882C174.74 74.8391 174.641 74.8155 174.54 74.8127C174.328 74.8158 174.125 74.897 173.969 75.041C173.813 75.1849 173.716 75.3813 173.696 75.5924Z" fill="#263238"/>
<path d="M173.886 75.2248L175.033 74.1219C174.967 74.0439 174.885 73.9805 174.793 73.9357C174.702 73.8908 174.601 73.8655 174.499 73.8614C174.397 73.8572 174.295 73.8742 174.2 73.9114C174.105 73.9486 174.018 74.0051 173.946 74.0774C173.794 74.2262 173.703 74.4268 173.692 74.6393C173.681 74.8518 173.75 75.0608 173.886 75.2248Z" fill="#263238"/>
<path d="M172.431 79.7779C172.686 79.9354 173.045 79.4304 173.36 79.087C173.676 78.7436 174.653 78.4285 175.162 79.5435C175.671 80.6586 174.803 81.7615 174.076 82.1251C172.771 82.7715 172.359 81.8302 172.359 81.8302L172.249 87.0256C170.415 89.8536 166.254 89.7647 167.753 86.8883V85.3086C167.136 85.4111 166.51 85.4436 165.886 85.4056C164.868 85.244 164.23 84.4077 163.919 83.2603C163.426 81.4181 163.236 79.9314 163.656 76.3075C164.117 72.3402 168.553 72.2958 170.928 73.8835C173.304 75.4712 172.431 79.7779 172.431 79.7779Z" fill="#FFA8A7"/>
<path d="M166.904 75.6894C167.963 75.5844 169.009 75.3662 170.072 75.2854C170.301 75.2576 170.533 75.2685 170.759 75.3177C171.567 75.5399 171.47 76.4853 171.599 77.1438C171.821 78.2831 172.003 80.2101 172.431 80.2182C172.561 80.2182 173.045 79.3819 173.36 79.083C173.534 78.8254 173.632 78.5246 173.643 78.2144C173.724 77.7458 173.764 77.265 173.801 76.7883C173.833 76.3843 173.874 75.9803 173.874 75.5763C173.892 75.1197 173.855 74.6626 173.764 74.2148C173.663 73.8338 173.469 73.484 173.199 73.1967L173.118 73.1078C172.586 72.5511 171.939 72.1156 171.223 71.8312C170.193 71.4453 169.113 71.2099 168.016 71.1323C166.92 71.0547 165.829 70.9198 164.747 70.7283C164.685 70.7102 164.619 70.7102 164.557 70.7283C164.513 70.7526 164.476 70.7875 164.45 70.8298C164.423 70.8722 164.407 70.9206 164.404 70.9707C164.359 71.2217 164.387 71.4802 164.484 71.7161C164.58 71.9521 164.742 72.1559 164.949 72.3039C164.218 72.3604 163.378 71.9807 162.675 71.7868C162.618 71.7626 162.557 71.7502 162.495 71.7502C162.433 71.7502 162.372 71.7626 162.315 71.7868C162.245 71.8361 162.194 71.9093 162.174 71.9928C162.123 72.1826 162.116 72.3816 162.153 72.5745C162.218 73.1593 162.435 73.7167 162.784 74.1905C163.328 74.8995 164.097 75.4023 164.965 75.6167C165.604 75.7398 166.258 75.7644 166.904 75.6894Z" fill="#263238"/>
<path d="M167.757 85.3086C167.757 85.3086 170.027 84.8319 170.819 84.3915C171.291 84.1335 171.674 83.7393 171.918 83.2603C171.799 83.7415 171.586 84.1945 171.292 84.5935C170.714 85.3692 167.757 85.9348 167.757 85.9348V85.3086Z" fill="#F28F8F"/>
<path d="M168.302 79.184C168.298 79.3087 168.343 79.4301 168.428 79.5216C168.513 79.6132 168.63 79.6676 168.755 79.6728C168.854 79.681 168.953 79.659 169.039 79.6099C169.125 79.5607 169.195 79.4866 169.238 79.3973C169.282 79.308 169.297 79.2077 169.283 79.1095C169.268 79.0112 169.224 78.9197 169.157 78.8468C169.089 78.7739 169.002 78.7231 168.905 78.701C168.808 78.679 168.707 78.6867 168.614 78.7231C168.522 78.7596 168.443 78.8231 168.387 78.9053C168.331 78.9875 168.302 79.0847 168.302 79.184Z" fill="#263238"/>
<path d="M169.03 77.2246L170.003 77.7862C170.074 77.6477 170.09 77.4877 170.048 77.3379C170.006 77.1881 169.909 77.0597 169.777 76.9782C169.712 76.9419 169.641 76.9196 169.567 76.9124C169.494 76.9053 169.419 76.9136 169.349 76.9368C169.279 76.9599 169.214 76.9975 169.159 77.0471C169.104 77.0966 169.06 77.1571 169.03 77.2246Z" fill="#263238"/>
<path d="M167.959 82.4604L166.921 82.8644C166.942 82.9356 166.977 83.0018 167.024 83.0588C167.072 83.1158 167.131 83.1624 167.197 83.1957C167.263 83.2291 167.336 83.2484 167.41 83.2526C167.484 83.2568 167.558 83.2456 167.628 83.2199C167.769 83.1591 167.882 83.0467 167.943 82.9056C168.005 82.7646 168.011 82.6054 167.959 82.4604Z" fill="#F28F8F"/>
<path d="M164.125 77.6407L165.014 76.9297C164.974 76.8676 164.921 76.8146 164.86 76.7742C164.798 76.7337 164.729 76.7067 164.656 76.6949C164.583 76.6831 164.509 76.6867 164.437 76.7056C164.366 76.7245 164.3 76.7581 164.242 76.8044C164.123 76.9051 164.046 77.046 164.024 77.2002C164.003 77.3545 164.038 77.5112 164.125 77.6407Z" fill="#263238"/>
<path d="M164.517 79.0507C164.524 79.139 164.557 79.2235 164.611 79.2936C164.665 79.3638 164.739 79.4166 164.822 79.4456C164.906 79.4747 164.997 79.4787 165.083 79.4572C165.169 79.4357 165.247 79.3896 165.307 79.3245C165.367 79.2594 165.407 79.1782 165.422 79.0908C165.437 79.0034 165.426 78.9135 165.391 78.8322C165.355 78.7509 165.297 78.6816 165.223 78.6329C165.149 78.5842 165.062 78.5581 164.973 78.5578C164.911 78.5598 164.85 78.5743 164.793 78.6002C164.736 78.6262 164.685 78.6632 164.642 78.709C164.6 78.7548 164.567 78.8086 164.545 78.8673C164.524 78.9259 164.514 78.9882 164.517 79.0507Z" fill="#263238"/>
<path d="M166.953 78.6709L166.9 81.5434L165.268 81.1717L166.953 78.6709Z" fill="#F28F8F"/>
<path d="M128.193 102.729L130.726 101.267L131.728 100.051L129.199 101.513L128.193 102.729Z" fill="#72B2D5"/>
<path opacity="0.4" d="M128.193 102.729L130.726 101.267L131.728 100.051L129.199 101.513L128.193 102.729Z" fill="black"/>
<path d="M135.081 106.704L137.615 105.242L139.727 103.371L137.198 104.83L135.081 106.704Z" fill="#72B2D5"/>
<path opacity="0.4" d="M135.081 106.704L137.615 105.242L139.727 103.371L137.198 104.83L135.081 106.704Z" fill="black"/>
<path d="M156.598 111.75C157.197 112.553 157.56 113.508 157.645 114.506C157.049 113.701 156.686 112.748 156.598 111.75ZM162.485 111.827C161.632 106.03 158.517 100.297 154.809 98.1518C153.027 97.1216 151.379 97.0852 150.058 97.8569L147.674 99.2305L147.541 99.3113C147.435 99.3697 147.332 99.4345 147.234 99.5052C147.038 99.64 146.854 99.7913 146.684 99.9577L146.604 100.034C146.531 100.107 146.454 100.192 146.385 100.273C146.317 100.354 146.212 100.479 146.131 100.588C145.959 100.814 145.804 101.051 145.666 101.299C145.594 101.424 145.525 101.558 145.46 101.703L124.642 89.688L122.113 91.1464V92.7624L122.327 92.8836L122.529 93.0008V93.324L122.125 93.5623V94.4996L125.183 100.964L128.205 102.713L129.211 101.501L131.878 103.097L133.409 105.719L135.098 106.692L137.211 104.818L139.804 106.317L140.677 109.916L145.036 112.437C145.251 113.353 145.521 114.256 145.844 115.14C145.872 115.229 145.909 115.322 145.945 115.423C147.391 119.22 149.69 122.473 152.284 123.971C152.595 124.156 152.92 124.314 153.257 124.444C153.436 124.515 153.618 124.576 153.803 124.626C153.964 124.669 154.126 124.705 154.288 124.735C154.798 124.828 155.321 124.828 155.831 124.735L156.041 124.682C156.141 124.662 156.24 124.634 156.336 124.598L156.562 124.509C156.642 124.48 156.719 124.443 156.792 124.4C156.867 124.367 156.94 124.331 157.011 124.291L157.116 124.226C157.135 124.22 157.152 124.21 157.168 124.198C157.746 123.866 159.168 123.042 159.556 122.824C161.479 121.709 162.723 118.889 162.723 114.902C162.72 113.872 162.64 112.845 162.485 111.827Z" fill="#72B2D5"/>
<path d="M155.859 116.643C154.857 116.065 154.049 114.352 154.049 112.817C154.049 111.282 154.857 110.502 155.859 111.076C156.861 111.649 157.665 113.366 157.665 114.906C157.665 116.445 156.857 117.221 155.859 116.643ZM159.952 113.286C159.103 107.492 155.988 101.755 152.276 99.6143C150.555 98.6204 148.963 98.5477 147.67 99.2305L147.537 99.3113C147.431 99.3697 147.328 99.4345 147.23 99.5052C147.034 99.6399 146.85 99.7913 146.68 99.9577L146.599 100.034C146.527 100.107 146.45 100.192 146.381 100.273C146.313 100.354 146.208 100.479 146.127 100.588C145.955 100.814 145.8 101.051 145.662 101.299C145.589 101.424 145.521 101.558 145.456 101.703C145.079 102.484 144.808 103.311 144.648 104.163L122.109 91.1464V92.7624L122.323 92.8836L122.525 93.0008V93.324L122.121 93.5623V94.4996L125.179 100.964L128.201 102.713L129.207 101.501L131.874 103.097L133.405 105.719L135.094 106.692L137.206 104.818L139.8 106.317L140.673 109.916L145.036 112.437C145.251 113.353 145.521 114.256 145.844 115.14C145.872 115.229 145.909 115.322 145.945 115.423C147.391 119.22 149.69 122.473 152.284 123.971C152.595 124.156 152.92 124.314 153.257 124.444C153.436 124.515 153.618 124.576 153.803 124.626C153.964 124.669 154.126 124.705 154.288 124.735C154.798 124.828 155.321 124.828 155.831 124.735L156.041 124.682C156.141 124.662 156.24 124.634 156.336 124.598L156.562 124.509C156.642 124.48 156.719 124.443 156.792 124.4C156.867 124.367 156.94 124.331 157.011 124.291L157.116 124.226C157.135 124.22 157.152 124.21 157.168 124.198C159.01 123.034 160.194 120.255 160.194 116.364C160.187 115.333 160.106 114.305 159.952 113.286Z" fill="#72B2D5"/>
<path opacity="0.4" d="M157.665 114.902C157.665 116.441 156.857 117.221 155.859 116.643C154.861 116.065 154.049 114.356 154.049 112.817C154.049 111.278 154.857 110.498 155.859 111.076C156.148 111.251 156.399 111.482 156.598 111.754C156.685 112.752 157.048 113.706 157.645 114.51C157.66 114.64 157.666 114.771 157.665 114.902Z" fill="black"/>
<path opacity="0.4" d="M162.715 114.898C162.715 118.885 161.471 121.705 159.548 122.82C159.144 123.038 157.738 123.862 157.16 124.194C159.002 123.03 160.186 120.251 160.186 116.36C160.182 115.331 160.103 114.303 159.952 113.286C159.103 107.492 155.988 101.755 152.276 99.6143C150.555 98.6204 148.963 98.5477 147.67 99.2305L150.054 97.8569C151.375 97.0852 153.023 97.1216 154.805 98.1518C158.517 100.297 161.632 106.03 162.481 111.827C162.635 112.843 162.713 113.87 162.715 114.898Z" fill="white"/>
<path d="M160.186 116.352C160.186 120.243 159.002 123.022 157.16 124.186C157.738 123.854 159.16 123.03 159.548 122.812C161.471 121.697 162.715 118.877 162.715 114.89C162.715 114.744 162.715 114.595 162.715 114.445L160.186 115.908C160.182 116.065 160.186 116.211 160.186 116.352Z" fill="#72B2D5"/>
<path opacity="0.1" d="M160.186 116.352C160.186 120.243 159.002 123.022 157.16 124.186C157.738 123.854 159.16 123.03 159.548 122.812C161.471 121.697 162.715 118.877 162.715 114.89C162.715 114.744 162.715 114.595 162.715 114.445L160.186 115.908C160.182 116.065 160.186 116.211 160.186 116.352Z" fill="black"/>
<path opacity="0.15" d="M144.745 105.816V106.636L122.113 93.5704L122.529 93.328V92.9887L144.745 105.816Z" fill="black"/>
<path opacity="0.15" d="M144.745 106.155V106.636L122.113 93.5704L122.529 93.328V93.324L144.745 106.155Z" fill="black"/>
<path opacity="0.15" d="M154.587 122.816C153.729 122.794 152.892 122.544 152.163 122.093C148.474 119.964 145.472 113.629 145.472 107.973C145.472 104.672 146.47 102.208 148.211 101.202C149.423 100.499 150.858 100.588 152.365 101.457C156.049 103.586 159.051 109.941 159.051 115.597C159.051 118.893 158.053 121.362 156.312 122.364C155.786 122.663 155.191 122.82 154.587 122.816ZM149.961 101.141C149.422 101.138 148.893 101.278 148.426 101.545C146.838 102.462 145.888 104.866 145.888 107.969C145.888 113.496 148.797 119.685 152.377 121.737C153.746 122.545 155.043 122.618 156.122 121.996C157.709 121.079 158.659 118.679 158.659 115.576C158.659 110.046 155.75 103.86 152.175 101.804C151.506 101.397 150.743 101.174 149.961 101.158V101.141Z" fill="black"/>
<path opacity="0.4" d="M145.44 101.695C145.063 102.476 144.792 103.303 144.632 104.155L122.093 91.1383L124.622 89.6799L145.44 101.695Z" fill="white"/>
<path d="M174.734 102.959C175.914 100.725 177.263 95.7076 177.934 93.1745C178.887 89.5789 177.344 87.3165 175.59 87.2236C174.496 87.3933 170.888 100.511 170.888 100.511C170.484 100.83 165.002 103.614 163.24 104.313C162.925 104.432 162.578 104.432 162.263 104.313C161.418 104.006 160.84 104.062 160.012 103.981C159.362 103.917 159.035 103.687 158.95 103.824C158.873 103.994 158.863 104.188 158.922 104.365C158.981 104.543 159.105 104.691 159.269 104.781C159.626 104.989 160.005 105.155 160.4 105.274C159.692 105.489 158.954 105.589 158.214 105.569C156.518 105.533 155.908 106.268 157.225 107.993C158.033 109.068 159.37 109.407 162.355 108.377C163.212 108.078 164.375 107.5 165.462 107.108C167.7 106.3 168.29 106.204 169.995 105.626C172.48 104.785 174.209 103.953 174.734 102.959Z" fill="#FFA8A7"/>
<path d="M174.932 86.8842C175.962 87.0256 176.952 87.2559 177.562 88.0962C178.172 88.9365 178.661 90.1162 178.063 93.328C177.605 95.5868 176.992 97.8114 176.229 99.9859C176.229 99.9859 173.829 101.012 171.28 98.4103L173.033 91.6312C173.033 91.6312 173.316 87.2236 174.932 86.8842Z" fill="#455A64"/>
</g>
<defs>
<clipPath id="clip0_6_429">
<rect width="202" height="202" fill="white"/>
</clipPath>
</defs>
</svg>
